<svg width="24" height="24" viewBox="0 0 24 24" fill="none" xmlns="http://www.w3.org/2000/svg">
<path d="M12 11.0625C12 11.0625 8.92345 8.26561 8.92345 5.74842C8.92345 4.0493 10.3009 2.67188 12 2.67188C13.6991 2.67188 15.0765 4.0493 15.0765 5.74842C15.0765 8.26561 12 11.0625 12 11.0625ZM12 11.0625C14.055 11.0625 15.7209 15.6586 15.7209 21.3281M12 11.0625C9.945 11.0625 8.27911 15.6586 8.27911 21.3281M11.2969 5.53125H12.7031M3.07655 9.51562H4.4828M19.5172 9.51562H20.9235M3.77967 15.0469C3.77967 15.0469 0.703125 12.25 0.703125 9.7328C0.703125 8.03367 2.08055 6.65625 3.77967 6.65625C5.4788 6.65625 6.85622 8.03367 6.85622 9.7328C6.85627 12.25 3.77967 15.0469 3.77967 15.0469ZM20.2203 15.0469C20.2203 15.0469 17.1438 12.25 17.1438 9.7328C17.1438 8.03367 18.5212 6.65625 20.2203 6.65625C21.9195 6.65625 23.2969 8.03367 23.2969 9.7328C23.2969 12.25 20.2203 15.0469 20.2203 15.0469Z" stroke="#808080" stroke-width="1.40625" stroke-miterlimit="10"/>
<path d="M2.85938 16.4062H21.0938M1.73438 21.3281H22.2656C22.2656 15.6586 17.6695 11.0625 12 11.0625C6.33047 11.0625 1.73438 15.6586 1.73438 21.3281Z" stroke="#808080" stroke-width="1.40625" stroke-miterlimit="10"/>
</svg>
