<svg width="24" height="24" viewBox="0 0 24 24" fill="none" xmlns="http://www.w3.org/2000/svg">
<path d="M20.9236 5.71875C19.2244 5.71875 17.8467 7.09641 17.8467 8.79516C17.8467 11.3123 20.9236 14.1094 20.9236 14.1094C20.9236 14.1094 24 11.3123 24 8.79516C24 7.09641 22.6223 5.71875 20.9236 5.71875ZM21.6267 9.28125H20.2205V7.875H21.6267V9.28125ZM3.07687 5.71875C1.37766 5.71875 0 7.09641 0 8.79516C0 11.3123 3.07687 14.1094 3.07687 14.1094C3.07687 14.1094 6.15328 11.3123 6.15328 8.79516C6.15328 7.09641 4.77563 5.71875 3.07687 5.71875ZM3.78 9.28125H2.37375V7.875H3.78V9.28125ZM1.05328 22.0312H7.07391C7.10438 20.5692 7.23094 19.1545 7.44422 17.8416H2.17687C1.52953 19.1377 1.14609 20.5566 1.05328 22.0312ZM4.24406 14.9784C3.78938 15.4331 3.37969 15.9202 3.01688 16.4353H7.71563C8.0573 14.9113 8.6093 13.2558 9.40406 12.0731C7.46672 12.5409 5.68922 13.5333 4.24406 14.9784ZM14.8411 16.4353C14.4587 14.6739 13.2821 11.7306 12 11.7657C10.7172 11.7315 9.54136 14.6739 9.15891 16.4353H14.8411ZM8.86922 17.8416C8.64516 19.1409 8.5125 20.558 8.48063 22.0312H15.5194C15.4875 20.558 15.3548 19.1409 15.1308 17.8416H8.86922ZM19.7559 14.9784C18.3108 13.5333 16.5333 12.5409 14.5959 12.0731C15.3912 13.257 15.9423 14.9101 16.2844 16.4353H20.9831C20.6166 15.9154 20.206 15.428 19.7559 14.9784ZM21.8231 17.8416H16.5558C16.7691 19.1545 16.8956 20.5692 16.9261 22.0312H22.9467C22.8539 20.5566 22.4705 19.1377 21.8231 17.8416ZM12 1.96875C10.3008 1.96875 8.92359 3.34641 8.92359 5.04516C8.92359 7.56234 12 10.3594 12 10.3594C12 10.3594 15.0764 7.56234 15.0764 5.04516C15.0764 3.34641 13.6992 1.96875 12 1.96875ZM12.7031 5.53125H11.2969V4.125H12.7031V5.53125Z" fill="#CE1127"/>
</svg>
