<svg width="53" height="21" viewBox="0 0 53 21" fill="none" xmlns="http://www.w3.org/2000/svg">
<path d="M10.1997 17.4463C9.97968 17.4463 9.77301 17.2997 9.71301 17.073C9.63967 16.8063 9.79967 16.533 10.073 16.4597C12.7797 15.7463 14.6663 13.293 14.6663 10.493C14.6663 7.09301 11.8997 4.32634 8.49967 4.32634C5.61301 4.32634 3.71967 6.01301 2.83301 7.03301H4.79301C5.06634 7.03301 5.29301 7.25967 5.29301 7.53301C5.29301 7.80634 5.07301 8.03967 4.79301 8.03967H1.83967C1.80634 8.03967 1.74634 8.03301 1.69967 8.01967C1.63967 7.99967 1.58634 7.97301 1.53967 7.93967C1.47967 7.89967 1.43301 7.84634 1.39967 7.78634C1.36634 7.72634 1.33967 7.65301 1.33301 7.57967C1.33301 7.55967 1.33301 7.54634 1.33301 7.52634V4.49967C1.33301 4.22634 1.55967 3.99967 1.83301 3.99967C2.10634 3.99967 2.33301 4.22634 2.33301 4.49967V6.09301C3.41967 4.92634 5.46634 3.33301 8.49967 3.33301C12.453 3.33301 15.6663 6.54634 15.6663 10.4997C15.6663 13.753 13.473 16.6063 10.3263 17.433C10.2863 17.4397 10.2397 17.4463 10.1997 17.4463Z" fill="#CE1127"/>
<path d="M8.02634 17.6533C8.01301 17.6533 7.99967 17.6467 7.99301 17.6467C7.27301 17.6 6.56634 17.44 5.89967 17.18C5.70634 17.1067 5.57301 16.9133 5.57967 16.7067C5.57967 16.6467 5.59301 16.5867 5.61301 16.5333C5.71301 16.28 6.01301 16.1533 6.25967 16.2467C6.83967 16.4733 7.44634 16.6067 8.05967 16.6533C8.31967 16.6667 8.52634 16.8933 8.52634 17.16L8.51967 17.1867C8.50634 17.4467 8.28634 17.6533 8.02634 17.6533ZM4.35301 16.22C4.23967 16.22 4.13301 16.18 4.03967 16.1133C3.47967 15.66 2.98634 15.1333 2.58634 14.5467C2.52634 14.46 2.49301 14.3667 2.49301 14.2667C2.49301 14.1 2.57301 13.9467 2.71301 13.8533C2.93301 13.7 3.25301 13.76 3.40634 13.9733C3.40634 13.98 3.40634 13.98 3.40634 13.98C3.41301 13.9867 3.41967 14 3.42634 14.0067C3.77301 14.5067 4.19301 14.9533 4.66634 15.3267C4.77967 15.42 4.85301 15.56 4.85301 15.7133C4.85301 15.8267 4.81967 15.94 4.74634 16.0333C4.64634 16.1533 4.50634 16.22 4.35301 16.22ZM2.12634 12.9667C1.90634 12.9667 1.71301 12.8267 1.65301 12.62C1.43967 11.9333 1.33301 11.22 1.33301 10.5V10.4933C1.33967 10.22 1.55967 10 1.83301 10C2.10634 10 2.33301 10.2267 2.33301 10.5C2.33301 11.1267 2.42634 11.74 2.60634 12.32C2.61967 12.3733 2.62634 12.42 2.62634 12.4733C2.62634 12.6867 2.48634 12.88 2.27301 12.9467C2.22634 12.96 2.17967 12.9667 2.12634 12.9667Z" fill="#CE1127"/>
<path d="M27.85 15.5H21.676V5.378H27.85V6.638H23.048V9.802H27.374V11.02H23.048V14.226H27.85V15.5ZM33.5341 8.598V9.802H32.9461C31.7001 9.802 30.9301 10.558 30.9301 11.874V15.5H29.6141V8.668H30.8461L30.9301 9.704C31.2101 8.99 31.8961 8.514 32.8341 8.514C33.0721 8.514 33.2681 8.542 33.5341 8.598ZM38.6884 8.598V9.802H38.1004C36.8544 9.802 36.0844 10.558 36.0844 11.874V15.5H34.7684V8.668H36.0004L36.0844 9.704C36.3644 8.99 37.0504 8.514 37.9884 8.514C38.2264 8.514 38.4224 8.542 38.6884 8.598ZM39.2286 12.07C39.2286 9.956 40.7406 8.472 42.7986 8.472C44.8426 8.472 46.3546 9.956 46.3546 12.07C46.3546 14.184 44.8426 15.668 42.7986 15.668C40.7406 15.668 39.2286 14.184 39.2286 12.07ZM40.5586 12.07C40.5586 13.498 41.4686 14.492 42.7986 14.492C44.1146 14.492 45.0386 13.498 45.0386 12.07C45.0386 10.642 44.1146 9.648 42.7986 9.648C41.4686 9.648 40.5586 10.642 40.5586 12.07ZM51.7314 8.598V9.802H51.1434C49.8974 9.802 49.1274 10.558 49.1274 11.874V15.5H47.8114V8.668H49.0434L49.1274 9.704C49.4074 8.99 50.0934 8.514 51.0314 8.514C51.2694 8.514 51.4654 8.542 51.7314 8.598Z" fill="#CE1127"/>
</svg>
