<svg width="20" height="20" viewBox="0 0 20 20" fill="none" xmlns="http://www.w3.org/2000/svg">
<path opacity="0.4" d="M13.5333 3.04169H6.46667C4.40834 3.04169 2.74167 4.71669 2.74167 6.76669V14.6084C2.74167 16.6584 4.41667 18.3334 6.46667 18.3334H13.525C15.5833 18.3334 17.25 16.6584 17.25 14.6084V6.76669C17.2583 4.70835 15.5833 3.04169 13.5333 3.04169Z" fill="#CE1127"/>
<path d="M11.9583 1.66669H8.04167C7.175 1.66669 6.46667 2.36669 6.46667 3.23335V4.01669C6.46667 4.88335 7.16667 5.58335 8.03333 5.58335H11.9583C12.825 5.58335 13.525 4.88335 13.525 4.01669V3.23335C13.5333 2.36669 12.825 1.66669 11.9583 1.66669Z" fill="#CE1127"/>
<path d="M12.5 11.0417C12.1583 11.0417 11.875 11.325 11.875 11.6667V12.6583L7.94167 8.72501C7.7 8.48335 7.3 8.48335 7.05833 8.72501C6.81667 8.96668 6.81667 9.36668 7.05833 9.60834L10.9917 13.5417H10C9.65833 13.5417 9.375 13.825 9.375 14.1667C9.375 14.5083 9.65833 14.7917 10 14.7917H12.5C12.8417 14.7917 13.125 14.5083 13.125 14.1667V11.6667C13.125 11.325 12.8417 11.0417 12.5 11.0417Z" fill="#CE1127"/>
</svg>
