<svg width="20" height="21" viewBox="0 0 20 21" fill="none" xmlns="http://www.w3.org/2000/svg">
<path d="M7.50003 15.2917C7.15837 15.2917 6.87503 15.0084 6.87503 14.6667V11.1751L6.27503 11.7751C6.03337 12.0167 5.63337 12.0167 5.3917 11.7751C5.15003 11.5334 5.15003 11.1334 5.3917 10.8917L7.05837 9.22507C7.23337 9.05007 7.50837 8.99174 7.7417 9.09174C7.97503 9.18341 8.12503 9.41674 8.12503 9.66674V14.6667C8.12503 15.0084 7.8417 15.2917 7.50003 15.2917Z" fill="#B7BDBE"/>
<path d="M9.16654 11.9585C9.0082 11.9585 8.84987 11.9002 8.72487 11.7752L7.0582 10.1085C6.81654 9.86686 6.81654 9.46686 7.0582 9.2252C7.29987 8.98353 7.69987 8.98353 7.94154 9.2252L9.6082 10.8919C9.84987 11.1335 9.84987 11.5335 9.6082 11.7752C9.4832 11.9002 9.32487 11.9585 9.16654 11.9585Z" fill="#B7BDBE"/>
<path d="M12.4998 19.4587H7.49984C2.97484 19.4587 1.0415 17.5253 1.0415 13.0003V8.00033C1.0415 3.47533 2.97484 1.54199 7.49984 1.54199H11.6665C12.0082 1.54199 12.2915 1.82533 12.2915 2.16699C12.2915 2.50866 12.0082 2.79199 11.6665 2.79199H7.49984C3.65817 2.79199 2.2915 4.15866 2.2915 8.00033V13.0003C2.2915 16.842 3.65817 18.2087 7.49984 18.2087H12.4998C16.3415 18.2087 17.7082 16.842 17.7082 13.0003V8.83366C17.7082 8.49199 17.9915 8.20866 18.3332 8.20866C18.6748 8.20866 18.9582 8.49199 18.9582 8.83366V13.0003C18.9582 17.5253 17.0248 19.4587 12.4998 19.4587Z" fill="#B7BDBE"/>
<path d="M18.3332 9.45841H14.9998C12.1498 9.45841 11.0415 8.35007 11.0415 5.50007V2.16674C11.0415 1.91674 11.1915 1.68341 11.4248 1.59174C11.6582 1.49174 11.9248 1.55007 12.1082 1.72507L18.7748 8.39174C18.9498 8.56674 19.0082 8.84174 18.9082 9.07507C18.8082 9.3084 18.5832 9.45841 18.3332 9.45841ZM12.2915 3.67507V5.50007C12.2915 7.65007 12.8498 8.20841 14.9998 8.20841H16.8248L12.2915 3.67507Z" fill="#B7BDBE"/>
</svg>
