<svg width="20" height="21" viewBox="0 0 20 21" fill="none" xmlns="http://www.w3.org/2000/svg">
<path d="M7.49954 15.2917C7.15788 15.2917 6.87454 15.0084 6.87454 14.6667V11.1751L6.27454 11.7751C6.03288 12.0167 5.63288 12.0167 5.39121 11.7751C5.14954 11.5334 5.14954 11.1334 5.39121 10.8917L7.05788 9.22507C7.23288 9.05007 7.50788 8.99174 7.74121 9.09174C7.97454 9.18341 8.12454 9.41674 8.12454 9.66674V14.6667C8.12454 15.0084 7.84121 15.2917 7.49954 15.2917Z" fill="#FDFBF5"/>
<path d="M9.16654 11.9585C9.0082 11.9585 8.84987 11.9002 8.72487 11.7752L7.0582 10.1085C6.81654 9.86686 6.81654 9.46686 7.0582 9.2252C7.29987 8.98353 7.69987 8.98353 7.94154 9.2252L9.6082 10.8919C9.84987 11.1335 9.84987 11.5335 9.6082 11.7752C9.4832 11.9002 9.32487 11.9585 9.16654 11.9585Z" fill="#FDFBF5"/>
<path d="M12.5003 19.4587H7.50033C2.97533 19.4587 1.04199 17.5253 1.04199 13.0003V8.00033C1.04199 3.47533 2.97533 1.54199 7.50033 1.54199H11.667C12.0087 1.54199 12.292 1.82533 12.292 2.16699C12.292 2.50866 12.0087 2.79199 11.667 2.79199H7.50033C3.65866 2.79199 2.29199 4.15866 2.29199 8.00033V13.0003C2.29199 16.842 3.65866 18.2087 7.50033 18.2087H12.5003C16.342 18.2087 17.7087 16.842 17.7087 13.0003V8.83366C17.7087 8.49199 17.992 8.20866 18.3337 8.20866C18.6753 8.20866 18.9587 8.49199 18.9587 8.83366V13.0003C18.9587 17.5253 17.0253 19.4587 12.5003 19.4587Z" fill="#FDFBF5"/>
<path d="M18.3337 9.45841H15.0003C12.1503 9.45841 11.042 8.35007 11.042 5.50007V2.16674C11.042 1.91674 11.192 1.68341 11.4253 1.59174C11.6587 1.49174 11.9253 1.55007 12.1087 1.72507L18.7753 8.39174C18.9503 8.56674 19.0087 8.84174 18.9087 9.07507C18.8087 9.3084 18.5837 9.45841 18.3337 9.45841ZM12.292 3.67507V5.50007C12.292 7.65007 12.8503 8.20841 15.0003 8.20841H16.8253L12.292 3.67507Z" fill="#FDFBF5"/>
</svg>
