<svg width="56" height="56" viewBox="0 0 56 56" fill="none" xmlns="http://www.w3.org/2000/svg">
<circle cx="28" cy="28" r="28" fill="#FAE7E9"/>
<path d="M28 22.9033V25.9558" stroke="#B90F23" stroke-width="1.5" stroke-miterlimit="10" stroke-linecap="round"/>
<path d="M28.0184 18.8335C24.645 18.8335 21.9134 21.5652 21.9134 24.9385V26.8635C21.9134 27.4868 21.6567 28.4218 21.3359 28.9535L20.1717 30.8968C19.4567 32.0977 19.9517 33.436 21.2717 33.876C25.6534 35.3335 30.3925 35.3335 34.7742 33.876C36.0117 33.4635 36.5434 32.0152 35.8742 30.8968L34.71 28.9535C34.3892 28.4218 34.1325 27.4777 34.1325 26.8635V24.9385C34.1234 21.5835 31.3734 18.8335 28.0184 18.8335Z" stroke="#B90F23" stroke-width="1.5" stroke-miterlimit="10" stroke-linecap="round"/>
<path d="M31.0525 34.2515C31.0525 35.929 29.6775 37.304 28 37.304C27.1658 37.304 26.3958 36.9556 25.8458 36.4056C25.2958 35.8556 24.9475 35.0856 24.9475 34.2515" stroke="#B90F23" stroke-width="1.5" stroke-miterlimit="10"/>
</svg>
