<svg width="20" height="20" viewBox="0 0 20 20" fill="none" xmlns="http://www.w3.org/2000/svg">
<path d="M4.16699 8.33335H5.83366C7.50033 8.33335 8.33366 7.50002 8.33366 5.83335V4.16669C8.33366 2.50002 7.50033 1.66669 5.83366 1.66669H4.16699C2.50033 1.66669 1.66699 2.50002 1.66699 4.16669V5.83335C1.66699 7.50002 2.50033 8.33335 4.16699 8.33335Z" stroke="#292D32" stroke-width="1.5" stroke-miterlimit="10" stroke-linecap="round" stroke-linejoin="round"/>
<path d="M14.167 8.33335H15.8337C17.5003 8.33335 18.3337 7.50002 18.3337 5.83335V4.16669C18.3337 2.50002 17.5003 1.66669 15.8337 1.66669H14.167C12.5003 1.66669 11.667 2.50002 11.667 4.16669V5.83335C11.667 7.50002 12.5003 8.33335 14.167 8.33335Z" stroke="#292D32" stroke-width="1.5" stroke-miterlimit="10" stroke-linecap="round" stroke-linejoin="round"/>
<path d="M14.167 18.3334H15.8337C17.5003 18.3334 18.3337 17.5 18.3337 15.8334V14.1667C18.3337 12.5 17.5003 11.6667 15.8337 11.6667H14.167C12.5003 11.6667 11.667 12.5 11.667 14.1667V15.8334C11.667 17.5 12.5003 18.3334 14.167 18.3334Z" stroke="#292D32" stroke-width="1.5" stroke-miterlimit="10" stroke-linecap="round" stroke-linejoin="round"/>
<path d="M4.16699 18.3334H5.83366C7.50033 18.3334 8.33366 17.5 8.33366 15.8334V14.1667C8.33366 12.5 7.50033 11.6667 5.83366 11.6667H4.16699C2.50033 11.6667 1.66699 12.5 1.66699 14.1667V15.8334C1.66699 17.5 2.50033 18.3334 4.16699 18.3334Z" stroke="#292D32" stroke-width="1.5" stroke-miterlimit="10" stroke-linecap="round" stroke-linejoin="round"/>
</svg>
