<svg width="35" height="58" viewBox="0 0 35 58" fill="none" xmlns="http://www.w3.org/2000/svg">
<path d="M19.9141 42.5242C20.7141 42.5513 21.5137 42.6095 22.3071 42.7166C22.4004 42.7291 22.4939 42.7409 22.5874 42.7525C23.2777 42.8414 23.9478 43.0048 24.6103 43.2171C24.6335 43.2245 24.6567 43.2319 24.6805 43.2395C25.7444 43.5844 26.7404 44.1363 27.6129 44.8338C27.6361 44.8524 27.6594 44.871 27.6833 44.8901C27.7545 44.9478 27.8249 45.0061 27.8952 45.0648C27.9089 45.0762 27.9227 45.0877 27.9369 45.0994C28.1533 45.2793 28.356 45.4685 28.5525 45.6699C28.6262 45.7454 28.6998 45.82 28.7789 45.89C28.9986 46.0909 29.1394 46.3299 29.29 46.5847C29.3571 46.6976 29.4265 46.809 29.4959 46.9205C29.5235 46.9652 29.5512 47.0099 29.5789 47.0546C29.6726 47.2059 29.7671 47.3567 29.8616 47.5075C29.9948 47.7205 30.1268 47.9342 30.2575 48.1487C30.3513 48.3025 30.4456 48.456 30.54 48.6094C30.5489 48.6239 30.5578 48.6384 30.567 48.6533C30.6796 48.8362 30.7925 49.0188 30.9066 49.2007C30.993 49.3384 31.0785 49.4767 31.1639 49.6151C31.272 49.79 31.381 49.9643 31.4911 50.138C31.6113 50.3276 31.7291 50.5187 31.8459 50.7105C31.9405 50.8658 32.0358 51.0208 32.1311 51.1757C32.1445 51.1974 32.1445 51.1974 32.1581 51.2196C32.2705 51.4023 32.3834 51.5847 32.4974 51.7665C32.6011 51.9318 32.7036 52.0979 32.8061 52.264C32.8947 52.4073 32.9845 52.5495 33.0771 52.6901C33.1047 52.7379 33.1047 52.7379 33.1047 52.7892C31.3855 52.7892 29.6664 52.7892 27.8952 52.7892C27.8443 52.4717 27.8443 52.4717 27.7925 52.1477C27.7699 52.0365 27.7471 51.9272 27.7203 51.8173C27.7139 51.7902 27.7074 51.7631 27.7008 51.7352C27.6803 51.6502 27.6595 51.5653 27.6385 51.4804C27.6315 51.4516 27.6246 51.4228 27.6174 51.3932C27.1499 49.4734 26.1604 47.7053 24.8779 46.2111C24.8397 46.1665 24.8019 46.1215 24.7641 46.0765C24.6268 45.9137 24.4865 45.7582 24.3338 45.6094C24.2829 45.5585 24.2363 45.5064 24.1901 45.4513C24.0933 45.3385 23.9841 45.2406 23.8738 45.1415C23.8158 45.0892 23.7586 45.0362 23.702 44.9825C23.5144 44.8046 23.3208 44.6411 23.1157 44.484C23.0709 44.4491 23.0269 44.4134 22.9832 44.3773C22.0583 43.6158 20.9923 43.0589 19.9141 42.5498C19.9141 42.5414 19.9141 42.5329 19.9141 42.5242Z" fill="white"/>
<path d="M14.508 42.2335C14.5614 42.2338 14.6149 42.234 14.6683 42.2342C15.2117 42.2358 15.7546 42.2473 16.2977 42.2659C16.3301 42.267 16.3625 42.2681 16.396 42.2693C16.4875 42.2725 16.5791 42.2759 16.6707 42.2794C16.7108 42.2809 16.7108 42.2809 16.7518 42.2824C17.1485 42.2987 17.1485 42.2987 17.1943 42.3445C17.1979 42.413 17.1954 42.4811 17.1943 42.5498C17.0793 42.5887 16.9644 42.6275 16.8494 42.6662C16.8104 42.6793 16.7714 42.6925 16.7324 42.7057C16.528 42.775 16.3252 42.84 16.115 42.8899C15.6017 43.0198 15.1052 43.2217 14.628 43.448C14.6035 43.4595 14.5791 43.4711 14.5539 43.483C13.3666 44.0478 12.22 44.8983 11.3666 45.9051C11.3264 45.9525 11.2856 45.9991 11.2443 46.0456C11.0493 46.2664 10.8673 46.4945 10.6908 46.7303C10.6518 46.7822 10.6123 46.8336 10.5726 46.885C10.3693 47.1496 10.1861 47.4255 10.0087 47.708C9.9981 47.7249 9.98749 47.7418 9.97656 47.7592C9.08294 49.1925 8.52035 50.8052 8.34818 52.4858C8.33765 52.587 8.32621 52.6881 8.31498 52.7892C6.74827 52.7892 5.18156 52.7892 3.56738 52.7892C3.60368 52.6985 3.63443 52.63 3.68497 52.5494C3.70472 52.5177 3.70472 52.5177 3.72487 52.4854C3.73906 52.4629 3.75325 52.4403 3.76787 52.4171C3.79822 52.3685 3.82856 52.3199 3.85889 52.2713C3.87443 52.2465 3.88996 52.2217 3.90596 52.1962C3.9641 52.1031 4.02173 52.0098 4.07935 51.9164C4.19785 51.7243 4.31736 51.533 4.43831 51.3425C4.56802 51.1381 4.69401 50.9316 4.81943 50.7246C4.91376 50.5692 5.00957 50.4148 5.10714 50.2614C5.22159 50.0815 5.33336 49.9 5.44397 49.7177C5.57467 49.5022 5.70676 49.2878 5.84086 49.0744C5.91563 48.9553 5.99014 48.8361 6.06468 48.7169C6.08944 48.6773 6.08944 48.6773 6.1147 48.6369C6.23345 48.4468 6.35155 48.2564 6.46934 48.0658C6.57604 47.8932 6.68357 47.7212 6.79126 47.5492C6.91487 47.3517 7.03752 47.1538 7.15868 46.9548C7.28925 46.7404 7.42162 46.5272 7.55389 46.3138C7.60985 46.2236 7.66575 46.1333 7.72165 46.0429C7.74938 45.9981 7.77712 45.9533 7.80486 45.9085C7.87476 45.7957 7.9446 45.6827 8.01434 45.5698C8.1613 45.3319 8.30929 45.0947 8.45907 44.8585C8.53436 44.7395 8.6086 44.62 8.6817 44.4997C8.70547 44.4607 8.72941 44.4217 8.75352 44.3829C8.80701 44.2966 8.85839 44.2107 8.90392 44.1199C9.05059 43.8404 9.27941 43.7249 9.55489 43.5858C9.61748 43.5539 9.67889 43.5205 9.74016 43.4862C10.2788 43.187 10.8623 42.9506 11.4458 42.7551C11.4697 42.747 11.4935 42.7388 11.5181 42.7304C11.883 42.6071 12.2529 42.5125 12.6279 42.4263C12.6589 42.419 12.6589 42.419 12.6906 42.4116C13.2943 42.271 13.889 42.2289 14.508 42.2335Z" fill="white"/>
<path d="M17.7333 43.4994C17.7333 46.5651 17.7333 49.6307 17.7333 52.7893C15.7601 52.7893 13.7869 52.7893 11.7539 52.7893C11.8052 52.6184 11.8578 52.4563 11.925 52.2922C11.934 52.2699 11.9431 52.2476 11.9524 52.2247C11.9817 52.1525 12.0113 52.0803 12.041 52.0082C12.0563 51.9708 12.0563 51.9708 12.072 51.9327C12.4627 50.9815 12.895 50.0462 13.4116 49.1563C13.4555 49.0802 13.4983 49.0036 13.541 48.9269C14.0103 48.0843 14.5446 47.2593 15.133 46.495C15.1758 46.4392 15.2181 46.383 15.2605 46.3269C15.4607 46.062 15.6643 45.8007 15.8755 45.5445C15.9268 45.4822 15.9775 45.4194 16.0283 45.3567C16.2228 45.1194 16.4234 44.8873 16.6295 44.66C16.6772 44.6072 16.7242 44.5539 16.771 44.5002C17.6447 43.4994 17.6447 43.4994 17.7333 43.4994Z" fill="white"/>
<path d="M19.1445 43.5507C19.2453 43.6514 19.3347 43.7501 19.4236 43.8602C19.4379 43.8779 19.4523 43.8956 19.467 43.9138C19.6319 44.119 19.7889 44.3302 19.9458 44.5415C19.9881 44.5983 20.0306 44.6549 20.0734 44.7114C20.2416 44.9336 20.4044 45.159 20.5638 45.3875C20.6118 45.4561 20.6599 45.5246 20.708 45.5931C20.8997 45.8666 21.088 46.1414 21.2667 46.4234C21.3005 46.4766 21.3346 46.5296 21.3688 46.5826C21.6124 46.962 21.8408 47.3507 22.069 47.7395C22.0927 47.7799 22.1165 47.8202 22.1403 47.8606C22.6704 48.763 23.1334 49.7035 23.5585 50.6592C23.5661 50.6762 23.5737 50.6932 23.5815 50.7108C23.8366 51.2843 24.0662 51.8655 24.2803 52.4556C24.2903 52.4832 24.3003 52.5108 24.3107 52.5392C24.3198 52.5646 24.3289 52.5899 24.3382 52.616C24.3463 52.6384 24.3543 52.6607 24.3626 52.6838C24.3797 52.7379 24.3797 52.7379 24.3797 52.7892C22.6521 52.7892 20.9245 52.7892 19.1445 52.7892C19.1445 49.7405 19.1445 46.6918 19.1445 43.5507Z" fill="white"/>
<path d="M18.3228 28.9486C18.422 29.0365 18.4797 29.1363 18.5441 29.2501C18.5669 29.2897 18.5898 29.3292 18.6127 29.3686C18.6243 29.3886 18.6358 29.4085 18.6477 29.4291C18.6993 29.5169 18.753 29.6034 18.8072 29.6896C18.8176 29.7063 18.8281 29.7229 18.8389 29.7401C18.8969 29.8322 18.9551 29.9241 19.0134 30.016C19.1611 30.2493 19.3071 30.4834 19.4506 30.7192C19.5453 30.8746 19.6405 31.0295 19.7358 31.1845C19.7448 31.1989 19.7537 31.2134 19.7628 31.2283C19.8754 31.4112 19.9884 31.5938 20.1025 31.7757C20.1888 31.9135 20.2743 32.0518 20.3598 32.1901C20.4678 32.3651 20.5769 32.5393 20.687 32.713C20.7909 32.8772 20.8943 33.0417 20.9965 33.207C21.0146 33.2359 21.0146 33.2359 21.0331 33.2655C21.0441 33.2835 21.0552 33.3014 21.0666 33.32C21.0763 33.3357 21.0861 33.3514 21.0961 33.3676C21.1232 33.4201 21.1405 33.4574 21.1457 33.5166C21.1145 33.5739 21.1145 33.5739 21.0674 33.6357C20.781 34.0236 20.5478 34.4502 20.3245 34.8767C20.3111 34.9021 20.2978 34.9275 20.284 34.9537C20.0484 35.4051 19.8466 35.8673 19.6572 36.3395C19.6453 36.3693 19.6333 36.3991 19.621 36.4298C19.3564 37.0946 19.1454 37.7725 18.9533 38.4611C18.9425 38.4998 18.9316 38.5385 18.9207 38.5771C18.8545 38.8114 18.7948 39.0459 18.7434 39.2839C18.7111 39.4324 18.6728 39.5782 18.6291 39.7237C18.6159 39.7689 18.6027 39.8141 18.5895 39.8594C18.5834 39.8805 18.5772 39.9017 18.5709 39.9235C18.5362 40.0453 18.5059 40.1682 18.4768 40.2915C18.4683 40.2915 18.4598 40.2915 18.4511 40.2915C18.4461 40.2587 18.4412 40.2259 18.4361 40.1921C18.4293 40.1482 18.4226 40.1044 18.4158 40.0605C18.411 40.0282 18.411 40.0282 18.406 39.9953C18.3882 39.8806 18.3655 39.7702 18.3359 39.6578C18.3122 39.5508 18.3 39.442 18.2851 39.3335C17.9816 37.2398 17.2779 34.6404 15.9583 32.9509C15.9236 32.8723 15.9376 32.8289 15.9618 32.7467C16.0019 32.6702 16.0489 32.5989 16.0966 32.5269C16.1249 32.4832 16.1532 32.4394 16.1815 32.3956C16.1961 32.3731 16.2108 32.3505 16.2259 32.3273C16.296 32.2183 16.3639 32.108 16.4318 31.9977C16.5535 31.8005 16.6761 31.6038 16.7991 31.4074C16.9227 31.2099 17.0453 31.012 17.1665 30.813C17.2971 30.5986 17.4294 30.3854 17.5617 30.172C17.6315 30.0594 17.7013 29.9467 17.771 29.834C17.7846 29.8121 17.7981 29.7902 17.8121 29.7676C17.8852 29.6496 17.9582 29.5316 18.0312 29.4135C18.0464 29.3889 18.0617 29.3642 18.0774 29.3388C18.1067 29.2914 18.136 29.244 18.1653 29.1966C18.1851 29.1646 18.1851 29.1646 18.2052 29.1321C18.2226 29.1039 18.2226 29.1039 18.2403 29.0753C18.2671 29.0326 18.2948 28.9905 18.3228 28.9486Z" fill="white"/>
<path d="M17.9385 2.72144C17.9978 2.77225 18.057 2.82306 18.1181 2.87541C18.168 2.91357 18.2178 2.95167 18.2678 2.98969C18.5336 3.20367 18.7541 3.41737 18.7982 3.76823C18.8182 3.98747 18.8143 4.20757 18.8093 4.42739C18.8072 4.55397 18.8087 4.68053 18.8097 4.80712C18.8109 5.02844 18.81 5.24966 18.8074 5.47097C18.8037 5.80002 18.8035 6.129 18.8041 6.45807C18.8049 7.01172 18.8028 7.56532 18.7991 8.11895C18.7955 8.66682 18.7931 9.21467 18.7925 9.76255C18.7924 9.78812 18.7924 9.78812 18.7924 9.81421C18.7922 9.96991 18.792 10.1256 18.7919 10.2813C18.7915 10.6683 18.7909 11.0553 18.7902 11.4423C18.7901 11.4599 18.7901 11.4775 18.7901 11.4957C18.7884 12.3516 18.7846 13.2076 18.7805 14.0635C18.7791 14.3603 18.7777 14.6572 18.7763 14.954C18.7762 14.9816 18.7762 14.9816 18.7761 15.0098C18.7721 15.8665 18.7699 16.7232 18.768 17.5799C18.7679 17.6356 18.7677 17.6912 18.7676 17.7469C18.7668 18.1157 18.766 18.4846 18.7652 18.8534C18.7637 19.5872 18.762 20.3211 18.7602 21.0549C18.7601 21.0898 18.7601 21.1248 18.76 21.1597C18.7543 23.4823 18.7445 25.8049 18.734 28.1275C18.6334 28.0295 18.5634 27.9144 18.487 27.7971C18.4717 27.774 18.4563 27.751 18.4405 27.7272C18.4259 27.7048 18.4113 27.6824 18.3962 27.6593C18.3762 27.6288 18.3762 27.6288 18.3557 27.5977C18.3218 27.5342 18.3081 27.4799 18.2978 27.4089C18.2808 27.4089 18.2639 27.4089 18.2464 27.4089C18.2369 27.4416 18.2369 27.4416 18.2272 27.475C18.1925 27.5702 18.1461 27.6524 18.0925 27.7377C18.0788 27.7602 18.0788 27.7602 18.0648 27.7832C17.9965 27.8932 17.9965 27.8932 17.9385 27.9222C17.9385 19.6059 17.9385 11.2897 17.9385 2.72144Z" fill="#B4932C"/>
<path d="M20.3501 7.39197C20.3501 15.0815 20.3501 22.7711 20.3501 30.6937C20.271 30.6145 20.217 30.5317 20.1593 30.437C20.1364 30.4 20.1136 30.3631 20.0907 30.3261C20.0787 30.3066 20.0666 30.2871 20.0542 30.267C19.9894 30.1623 19.9235 30.0583 19.8577 29.9543C19.8395 29.9254 19.8395 29.9254 19.8208 29.8959C19.8088 29.8769 19.7968 29.8579 19.7844 29.8383C19.7674 29.8107 19.7674 29.8107 19.75 29.7827C19.7094 29.718 19.7094 29.718 19.6627 29.6579C19.5217 29.463 19.5029 29.308 19.5047 29.0714C19.5043 29.035 19.5038 28.9986 19.5033 28.9622C19.5021 28.8625 19.5021 28.7629 19.5022 28.6632C19.5021 28.5546 19.501 28.446 19.5 28.3374C19.4983 28.1222 19.4975 27.907 19.497 27.6918C19.4963 27.4339 19.4947 27.176 19.493 26.9182C19.489 26.2949 19.4869 25.6716 19.4851 25.0483C19.4842 24.7533 19.4832 24.4582 19.4822 24.1632C19.4787 23.1526 19.4758 22.142 19.4743 21.1314C19.4739 20.8769 19.4735 20.6223 19.4731 20.3678C19.473 20.3362 19.473 20.3046 19.4729 20.272C19.4713 19.2474 19.4667 18.2228 19.4604 17.1983C19.4539 16.1442 19.4499 15.0902 19.4492 14.0361C19.4491 13.887 19.449 13.738 19.4489 13.5889C19.4488 13.5596 19.4488 13.5302 19.4488 13.5C19.4483 13.0291 19.4453 12.5581 19.4413 12.0872C19.4373 11.6132 19.4362 11.1394 19.438 10.6654C19.4389 10.4088 19.4386 10.1525 19.4347 9.89593C19.4099 8.17371 19.4099 8.17371 19.8081 7.74924C20.1805 7.39197 20.1805 7.39197 20.3501 7.39197Z" fill="#B5942F"/>
<path d="M16.3213 8.59814C16.3806 8.64896 16.4399 8.69977 16.5009 8.75212C16.5259 8.77222 16.5509 8.79232 16.5766 8.81303C16.8619 9.04403 17.136 9.27053 17.1872 9.65247C17.1975 9.81399 17.1984 9.97387 17.1944 10.1356C17.1925 10.2375 17.1944 10.3393 17.1957 10.4411C17.1975 10.619 17.1971 10.7968 17.1951 10.9747C17.1922 11.2392 17.1928 11.5037 17.1941 11.7682C17.1964 12.2408 17.1951 12.7133 17.1925 13.1859C17.1901 13.5994 17.1891 14.0129 17.1893 14.4265C17.1893 14.454 17.1893 14.4815 17.1893 14.5098C17.1893 14.6214 17.1894 14.7329 17.1894 14.8445C17.19 15.8901 17.1872 16.9356 17.1826 17.9812C17.1787 18.9092 17.1771 19.8372 17.1778 20.7652C17.1778 20.8248 17.1779 20.8844 17.1779 20.944C17.1779 20.9735 17.1779 21.0029 17.178 21.0333C17.1781 21.1816 17.1782 21.33 17.1783 21.4783C17.1783 21.5222 17.1783 21.5222 17.1783 21.567C17.1788 22.3435 17.1775 23.1201 17.1757 23.8966C17.1756 23.9381 17.1756 23.9381 17.1755 23.9804C17.1754 24.0217 17.1754 24.0217 17.1753 24.064C17.1752 24.0915 17.1752 24.119 17.1751 24.1474C17.175 24.2028 17.1748 24.2583 17.1747 24.3137C17.1738 24.6996 17.1735 25.0855 17.1736 25.4713C17.1738 25.9687 17.1727 26.466 17.1696 26.9634C17.168 27.2261 17.1674 27.4888 17.1682 27.7516C17.1686 27.9274 17.1677 28.1032 17.1657 28.279C17.1647 28.379 17.1641 28.4789 17.1652 28.5789C17.1699 29.0595 17.1087 29.3988 16.8042 29.7853C16.7243 29.8907 16.6566 30.0036 16.5875 30.1163C16.4164 30.3891 16.4164 30.3891 16.347 30.4884C16.3385 30.4884 16.33 30.4884 16.3213 30.4884C16.3213 23.2646 16.3213 16.0408 16.3213 8.59814Z" fill="#B4932C"/>
<path d="M12.2156 19.6587C12.2187 21.3139 12.2215 22.969 12.2232 24.6242C12.2232 24.6487 12.2233 24.6732 12.2233 24.6984C12.2238 25.2307 12.2243 25.763 12.2248 26.2953C12.225 26.5563 12.2252 26.8173 12.2255 27.0784C12.2255 27.1043 12.2255 27.1303 12.2255 27.1571C12.2263 27.9992 12.2277 28.8413 12.2293 29.6834C12.231 30.5487 12.2321 31.414 12.2325 32.2793C12.2325 32.4015 12.2326 32.5237 12.2327 32.6458C12.2327 32.6819 12.2327 32.6819 12.2327 32.7187C12.2329 33.106 12.2337 33.4933 12.2348 33.8806C12.2359 34.2698 12.2363 34.659 12.236 35.0483C12.2359 35.2796 12.2362 35.5109 12.2373 35.7423C12.238 35.8968 12.238 36.0513 12.2375 36.2058C12.2372 36.2939 12.2372 36.3819 12.238 36.4699C12.2388 36.5649 12.2384 36.6597 12.2377 36.7547C12.2382 36.7819 12.2387 36.8092 12.2391 36.8372C12.2359 37.0448 12.1633 37.1556 12.036 37.3146C12.0085 37.3568 11.9816 37.3993 11.9554 37.4422C11.9358 37.4741 11.9358 37.4741 11.9159 37.5067C11.9026 37.5285 11.8893 37.5504 11.8756 37.5728C11.7659 37.7513 11.6553 37.9292 11.542 38.1053C11.53 38.124 11.5181 38.1428 11.5057 38.162C11.4779 38.2051 11.4491 38.2475 11.4201 38.2898C11.4116 38.2898 11.4031 38.2898 11.3944 38.2898C11.3808 36.6006 11.3681 34.9115 11.3607 33.2223C11.3606 33.1973 11.3605 33.1722 11.3604 33.1465C11.358 32.6023 11.3558 32.0581 11.3538 31.514C11.3528 31.2471 11.3518 30.9802 11.3507 30.7133C11.3505 30.6735 11.3505 30.6735 11.3504 30.6328C11.347 29.7733 11.341 28.9138 11.3337 28.0544C11.3262 27.1705 11.3213 26.2867 11.3197 25.4028C11.3195 25.2777 11.3192 25.1526 11.3189 25.0275C11.3189 25.0029 11.3188 24.9783 11.3188 24.9529C11.3178 24.558 11.3141 24.1631 11.3094 23.7682C11.3047 23.3704 11.3029 22.9726 11.3041 22.5748C11.3047 22.3595 11.3039 22.1444 11.2996 21.9291C11.2713 20.4871 11.2713 20.4871 11.6841 20.0532C12.0928 19.6587 12.0928 19.6587 12.2156 19.6587Z" fill="#CE142A"/>
<path d="M9.23905 24.6117C9.24433 26.2391 9.24922 27.8666 9.25209 29.494C9.25213 29.5181 9.25217 29.5422 9.25221 29.5671C9.25314 30.0908 9.25399 30.6146 9.25477 31.1384C9.25516 31.3953 9.25555 31.6522 9.25596 31.909C9.25602 31.9474 9.25602 31.9474 9.25608 31.9865C9.2574 32.8146 9.25971 33.6426 9.26254 34.4706C9.26545 35.3218 9.26734 36.1729 9.26797 37.0241C9.26806 37.1444 9.26816 37.2647 9.26826 37.385C9.26828 37.4087 9.26831 37.4324 9.26833 37.4568C9.26869 37.8374 9.27012 38.2181 9.27195 38.5987C9.27376 38.9817 9.27445 39.3647 9.274 39.7477C9.27377 39.975 9.27438 40.2023 9.27625 40.4297C9.27741 40.5818 9.27743 40.734 9.27656 40.8862C9.2761 40.9727 9.27628 41.0591 9.2775 41.1457C9.28318 41.5717 9.23498 41.8552 8.96779 42.1944C8.91561 42.262 8.87162 42.3331 8.82694 42.4058C8.79804 42.4512 8.76914 42.4965 8.74023 42.5419C8.71085 42.588 8.68148 42.634 8.65211 42.6801C8.63855 42.7014 8.62499 42.7226 8.61102 42.7445C8.57304 42.8046 8.53587 42.8651 8.49874 42.9257C8.48051 42.9541 8.46228 42.9826 8.4435 43.0118C8.43503 43.0118 8.42657 43.0118 8.41784 43.0118C8.40419 41.3447 8.39155 39.6776 8.38415 38.0104C8.38404 37.9857 8.38394 37.961 8.38382 37.9355C8.38144 37.3985 8.37924 36.8614 8.37722 36.3243C8.37622 36.0609 8.37519 35.7975 8.37414 35.534C8.37398 35.4947 8.37398 35.4947 8.37382 35.4546C8.37044 34.6063 8.36447 33.758 8.35714 32.9097C8.34962 32.0374 8.34474 31.165 8.34313 30.2927C8.3429 30.1692 8.34264 30.0457 8.34236 29.9223C8.34231 29.898 8.34225 29.8737 8.3422 29.8487C8.34126 29.4589 8.33758 29.0692 8.33285 28.6794C8.32815 28.2867 8.32638 27.8942 8.32755 27.5015C8.32809 27.289 8.32738 27.0767 8.32301 26.8642C8.29475 25.4413 8.29475 25.4413 8.7075 25.0076C9.11753 24.6117 9.11753 24.6117 9.23905 24.6117Z" fill="#CE142A"/>
<path d="M24.0462 19.6587C24.0573 19.6687 24.0685 19.6787 24.08 19.689C24.1759 19.7732 24.2717 19.843 24.3811 19.9093C24.6385 20.0842 24.8438 20.2985 24.9043 20.6124C24.966 21.0492 24.9502 21.498 24.9428 21.9381C24.9394 22.1497 24.9398 22.3613 24.9403 22.573C24.9412 22.9635 24.9391 23.3539 24.9352 23.7443C24.9314 24.1305 24.9289 24.5167 24.9282 24.9029C24.9282 24.927 24.9282 24.951 24.9281 24.9759C24.9279 25.0981 24.9277 25.2204 24.9275 25.3427C24.9262 26.2073 24.9219 27.0719 24.9158 27.9364C24.9099 28.7759 24.9053 29.6154 24.9026 30.455C24.9025 30.4809 24.9024 30.5068 24.9024 30.5335C24.9015 30.7937 24.9007 31.054 24.8999 31.3142C24.8983 31.8442 24.8965 32.3743 24.8945 32.9043C24.8944 32.9287 24.8944 32.953 24.8943 32.9781C24.8884 34.6033 24.8782 36.2284 24.8674 37.8535C24.7999 37.7701 24.7385 37.6874 24.6822 37.596C24.6589 37.5584 24.6589 37.5584 24.6352 37.5201C24.6192 37.4941 24.6032 37.4681 24.5867 37.4413C24.5555 37.3907 24.5243 37.3402 24.493 37.2896C24.4768 37.2629 24.4607 37.2362 24.4441 37.2086C24.3992 37.1366 24.35 37.0705 24.2972 37.0042C24.0197 36.6426 23.9991 36.3363 24.006 35.8913C24.0061 35.821 24.0056 35.7507 24.0052 35.6804C24.0045 35.5284 24.005 35.3764 24.0064 35.2243C24.0084 34.9983 24.0085 34.7723 24.0082 34.5462C24.0078 34.1658 24.0089 33.7854 24.0109 33.4051C24.0129 33.0287 24.0141 32.6524 24.0145 32.2761C24.0145 32.2526 24.0146 32.2292 24.0146 32.205C24.0147 32.0859 24.0148 31.9669 24.0149 31.8478C24.0156 31.0055 24.0178 30.1632 24.021 29.3209C24.0241 28.5029 24.0264 27.6849 24.0278 26.8669C24.0279 26.8417 24.0279 26.8164 24.028 26.7904C24.0284 26.537 24.0288 26.2835 24.0293 26.0301C24.0301 25.5138 24.031 24.9975 24.032 24.4812C24.0321 24.4575 24.0321 24.4338 24.0322 24.4093C24.0352 22.8258 24.0405 21.2422 24.0462 19.6587Z" fill="white"/>
<path d="M26.9975 24.6117C27.0086 24.6217 27.0198 24.6317 27.0313 24.6419C27.1272 24.7262 27.2234 24.7964 27.3324 24.8633C27.5876 25.0381 27.7946 25.2512 27.8556 25.5633C27.9172 25.9924 27.9015 26.4337 27.8941 26.8662C27.8907 27.074 27.8912 27.2819 27.8917 27.4898C27.8925 27.8733 27.8904 28.2568 27.8865 28.6403C27.8827 29.0196 27.8803 29.3989 27.8796 29.7782C27.8795 29.8019 27.8795 29.8255 27.8794 29.8499C27.8792 29.97 27.879 30.0902 27.8788 30.2103C27.8775 31.0595 27.8732 31.9087 27.8671 32.7578C27.8612 33.5824 27.8566 34.407 27.8539 35.2316C27.8538 35.2571 27.8538 35.2825 27.8537 35.3087C27.8528 35.5643 27.852 35.8199 27.8512 36.0756C27.8496 36.5962 27.8478 37.1168 27.8459 37.6374C27.8458 37.6614 27.8457 37.6853 27.8456 37.71C27.8397 39.3062 27.8295 40.9024 27.8187 42.4986C27.7532 42.4342 27.6979 42.3745 27.6495 42.2964C27.6375 42.2772 27.6255 42.258 27.6131 42.2383C27.5942 42.2075 27.5942 42.2075 27.5749 42.1762C27.5476 42.1325 27.5204 42.0888 27.4931 42.0451C27.4791 42.0226 27.4652 42.0001 27.4508 41.9769C27.3815 41.8655 27.3114 41.7546 27.2413 41.6437C27.2287 41.6236 27.216 41.6036 27.203 41.5829C27.191 41.5639 27.179 41.5449 27.1667 41.5253C27.1511 41.5005 27.1511 41.5005 27.1352 41.4752C27.0997 41.4175 27.0997 41.4175 27.0474 41.3578C26.9717 41.2432 26.9835 41.1207 26.9848 40.9877C26.9847 40.9594 26.9846 40.9311 26.9845 40.902C26.9842 40.8066 26.9847 40.7113 26.9851 40.616C26.9851 40.5471 26.985 40.4783 26.9849 40.4095C26.9847 40.2595 26.9848 40.1096 26.9852 39.9597C26.9859 39.7368 26.9859 39.5139 26.9858 39.291C26.9857 38.916 26.986 38.541 26.9866 38.166C26.9872 37.7947 26.9876 37.4234 26.9877 37.052C26.9877 37.029 26.9878 37.0059 26.9878 36.9821C26.9878 36.8649 26.9878 36.7477 26.9879 36.6305C26.9881 35.8001 26.9888 34.9697 26.9897 34.1393C26.9907 33.3326 26.9914 32.5258 26.9918 31.719C26.9919 31.6942 26.9919 31.6693 26.9919 31.6437C26.992 31.394 26.9921 31.1443 26.9923 30.8946C26.9925 30.386 26.9928 29.8774 26.9931 29.3687C26.9931 29.3453 26.9932 29.3219 26.9932 29.2978C26.9941 27.7358 26.9957 26.1737 26.9975 24.6117Z" fill="white"/>
<path d="M22.4296 18.1959C22.763 18.3588 23.0888 18.6267 23.2508 18.9658C23.3902 19.4064 23.3445 19.9133 23.3353 20.3715C23.3315 20.5699 23.3319 20.7682 23.3325 20.9666C23.3335 21.3326 23.3311 21.6985 23.3268 22.0644C23.3225 22.4263 23.3197 22.7881 23.319 23.15C23.3189 23.1725 23.3189 23.1951 23.3188 23.2184C23.3186 23.3331 23.3183 23.4477 23.3181 23.5624C23.3166 24.3727 23.3118 25.183 23.305 25.9933C23.2984 26.78 23.2933 27.5667 23.2903 28.3535C23.2902 28.3777 23.2901 28.402 23.29 28.4271C23.289 28.671 23.2881 28.915 23.2872 29.1589C23.2854 29.6558 23.2834 30.1527 23.2812 30.6496C23.2811 30.6724 23.281 30.6953 23.2809 30.7188C23.2743 32.2416 23.2629 33.7645 23.2508 35.2873C23.186 35.207 23.1255 35.1273 23.0703 35.0401C23.056 35.0175 23.0417 34.9949 23.027 34.9716C23.0119 34.9477 22.9968 34.9238 22.9813 34.8991C22.9657 34.8744 22.95 34.8496 22.9339 34.8242C22.8855 34.7476 22.8372 34.671 22.7889 34.5944C22.7446 34.5243 22.7004 34.4543 22.6562 34.3843C22.6297 34.3423 22.6032 34.3003 22.5767 34.2583C22.5588 34.23 22.5588 34.23 22.5406 34.2011C22.5303 34.1847 22.52 34.1682 22.5093 34.1513C22.4833 34.1105 22.4564 34.0701 22.4296 34.0298C22.4232 33.9785 22.4232 33.9785 22.4232 33.9187C22.4231 33.8958 22.423 33.873 22.4229 33.8494C22.423 33.8242 22.4231 33.799 22.4233 33.773C22.4232 33.7462 22.4231 33.7194 22.4231 33.6918C22.4229 33.601 22.4232 33.5102 22.4234 33.4194C22.4234 33.354 22.4233 33.2887 22.4233 33.2233C22.4232 33.0807 22.4232 32.9381 22.4235 32.7955C22.4238 32.5834 22.4238 32.3714 22.4237 32.1593C22.4237 31.8026 22.4238 31.446 22.4241 31.0893C22.4245 30.736 22.4247 30.3827 22.4247 30.0295C22.4247 30.0075 22.4247 29.9856 22.4247 29.963C22.4247 29.8515 22.4247 29.7401 22.4248 29.6286C22.4249 28.8388 22.4252 28.0489 22.4257 27.259C22.4262 26.4916 22.4265 25.7241 22.4268 24.9567C22.4268 24.933 22.4268 24.9094 22.4268 24.885C22.4268 24.6475 22.4269 24.4101 22.427 24.1726C22.4271 23.6888 22.4272 23.2051 22.4274 22.7213C22.4274 22.6991 22.4274 22.6768 22.4274 22.6539C22.4279 21.1679 22.4287 19.6819 22.4296 18.1959Z" fill="white"/>
<path d="M10.8299 23.4055C10.836 24.9071 10.8417 26.4087 10.8451 27.9103C10.8452 27.9436 10.8452 27.9436 10.8452 27.9777C10.8463 28.4612 10.8473 28.9446 10.8482 29.4281C10.8487 29.6652 10.8491 29.9023 10.8496 30.1395C10.8496 30.1631 10.8497 30.1867 10.8497 30.211C10.8513 30.975 10.854 31.739 10.8573 32.503C10.8607 33.2885 10.8629 34.074 10.8636 34.8595C10.8637 34.9706 10.8638 35.0817 10.864 35.1928C10.864 35.2256 10.864 35.2256 10.864 35.2591C10.8645 35.6102 10.8661 35.9613 10.8682 36.3125C10.8704 36.666 10.8712 37.0194 10.8706 37.3729C10.8704 37.5827 10.8711 37.7923 10.8733 38.002C10.8748 38.1592 10.8744 38.3162 10.8733 38.4734C10.8732 38.5365 10.8736 38.5997 10.8747 38.6629C10.8823 39.1117 10.7836 39.3891 10.5125 39.7477C10.4571 39.822 10.4088 39.8991 10.3605 39.9781C10.3459 40.0012 10.3313 40.0242 10.3163 40.048C10.2877 40.0934 10.2591 40.1387 10.2305 40.1841C10.2162 40.2067 10.202 40.2292 10.1873 40.2524C10.1751 40.2717 10.1628 40.2911 10.1502 40.3111C10.1063 40.3759 10.0578 40.436 10.0087 40.4969C9.99501 38.9545 9.98237 37.4122 9.97497 35.8698C9.97487 35.8469 9.97476 35.824 9.97464 35.8005C9.97226 35.3035 9.97006 34.8065 9.96804 34.3095C9.96704 34.0658 9.96601 33.822 9.96496 33.5782C9.96486 33.554 9.96475 33.5297 9.96465 33.5047C9.96126 32.7199 9.95529 31.9351 9.94796 31.1503C9.94044 30.3431 9.93556 29.536 9.93395 28.7288C9.93372 28.6146 9.93346 28.5003 9.93318 28.386C9.93313 28.3636 9.93307 28.3411 9.93302 28.3179C9.93208 27.9573 9.9284 27.5968 9.92367 27.2363C9.91896 26.8729 9.9172 26.5097 9.91837 26.1463C9.91891 25.9497 9.91821 25.7533 9.91383 25.5568C9.88557 24.2417 9.88557 24.2417 10.2983 23.8095C10.7155 23.4055 10.7155 23.4055 10.8299 23.4055Z" fill="#CE1328"/>
<path d="M13.8067 18.1959C13.8119 19.7451 13.8168 21.2942 13.8197 22.8434C13.8198 22.8778 13.8198 22.8778 13.8198 22.9129C13.8208 23.4115 13.8216 23.9102 13.8224 24.4088C13.8228 24.6533 13.8232 24.8979 13.8236 25.1424C13.8236 25.1789 13.8236 25.1789 13.8237 25.2162C13.825 26.0044 13.8273 26.7926 13.8302 27.5808C13.8331 28.391 13.835 29.2013 13.8356 30.0115C13.8357 30.1261 13.8358 30.2406 13.8359 30.3551C13.8359 30.3777 13.8359 30.4002 13.8359 30.4235C13.8363 30.7858 13.8377 31.1481 13.8396 31.5104C13.8414 31.875 13.8421 32.2396 13.8416 32.6042C13.8414 32.8206 13.842 33.0369 13.8439 33.2533C13.845 33.3982 13.8451 33.5431 13.8442 33.6879C13.8437 33.7703 13.8439 33.8526 13.8451 33.9349C13.851 34.3529 13.7941 34.6251 13.5344 34.9584C13.4873 35.0199 13.4468 35.0848 13.4067 35.1511C13.3945 35.1705 13.3823 35.1899 13.3697 35.2099C13.346 35.2475 13.3224 35.2851 13.2987 35.3227C13.2355 35.4231 13.1714 35.523 13.1064 35.6223C13.0873 35.6514 13.0873 35.6514 13.0679 35.681C13.0525 35.7021 13.0525 35.7021 13.0368 35.7235C13.0283 35.7235 13.0198 35.7235 13.0111 35.7235C12.9979 34.1368 12.9857 32.55 12.9785 30.9632C12.9784 30.9397 12.9783 30.9162 12.9782 30.892C12.9759 30.3808 12.9738 29.8695 12.9718 29.3583C12.9708 29.1076 12.9698 28.8569 12.9688 28.6061C12.9687 28.5812 12.9686 28.5562 12.9685 28.5305C12.9653 27.7231 12.9595 26.9157 12.9524 26.1083C12.9451 25.278 12.9404 24.4477 12.9388 23.6174C12.9386 23.4999 12.9383 23.3824 12.9381 23.2648C12.938 23.2417 12.938 23.2186 12.9379 23.1948C12.937 22.8238 12.9335 22.4529 12.9289 22.0819C12.9243 21.7082 12.9226 21.3345 12.9237 20.9607C12.9243 20.7585 12.9236 20.5564 12.9193 20.3542C12.892 19.0002 12.892 19.0002 13.2914 18.5808C13.6897 18.1959 13.6897 18.1959 13.8067 18.1959Z" fill="#CD1127"/>
<path d="M31.6166 32.644C31.6279 32.6541 31.6391 32.6641 31.6507 32.6744C31.7449 32.7571 31.839 32.8268 31.9461 32.8925C32.1896 33.065 32.3883 33.2608 32.4476 33.5635C32.5067 33.9749 32.4917 34.3969 32.4846 34.8117C32.4814 35.0108 32.4818 35.2099 32.4822 35.4091C32.483 35.7765 32.481 36.1438 32.4773 36.5112C32.4737 36.8746 32.4713 37.2379 32.4706 37.6013C32.4706 37.6239 32.4705 37.6466 32.4705 37.6699C32.4703 37.785 32.4701 37.9001 32.4699 38.0152C32.4686 38.8287 32.4645 39.6421 32.4586 40.4556C32.453 41.2455 32.4486 42.0354 32.446 42.8253C32.4459 42.8497 32.4459 42.8741 32.4458 42.8992C32.445 43.1441 32.4442 43.3889 32.4434 43.6338C32.4418 44.1325 32.4401 44.6313 32.4383 45.13C32.4382 45.1529 32.4381 45.1758 32.438 45.1995C32.4323 46.7286 32.4226 48.2576 32.4122 49.7867C32.3456 49.7042 32.2832 49.6217 32.2252 49.533C32.2018 49.4972 32.2018 49.4972 32.1779 49.4606C32.1615 49.4354 32.1452 49.4101 32.1283 49.3841C32.1114 49.3582 32.0945 49.3322 32.0771 49.3054C31.9567 49.1197 31.8395 48.9323 31.7254 48.7428C31.6774 48.6569 31.6774 48.6569 31.6166 48.5806C31.6142 48.5455 31.6134 48.5103 31.6135 48.4752C31.6134 48.4523 31.6133 48.4294 31.6133 48.4058C31.6133 48.3803 31.6134 48.3548 31.6135 48.3285C31.6135 48.3016 31.6134 48.2746 31.6134 48.2469C31.6133 48.1554 31.6134 48.0639 31.6136 47.9725C31.6135 47.9067 31.6135 47.8409 31.6135 47.7752C31.6134 47.6316 31.6135 47.488 31.6136 47.3444C31.6137 47.1309 31.6137 46.9174 31.6137 46.7038C31.6137 46.3447 31.6138 45.9856 31.6139 45.6265C31.6141 45.2707 31.6142 44.915 31.6142 44.5592C31.6142 44.5371 31.6142 44.515 31.6142 44.4923C31.6142 44.3801 31.6142 44.2679 31.6142 44.1557C31.6143 43.3604 31.6145 42.5651 31.6147 41.7698C31.6149 40.997 31.6151 40.2242 31.6152 39.4514C31.6152 39.4276 31.6152 39.4038 31.6152 39.3793C31.6153 39.1402 31.6153 38.9012 31.6153 38.6621C31.6154 38.1751 31.6155 37.688 31.6156 37.201C31.6156 37.1786 31.6156 37.1562 31.6156 37.1331C31.6158 35.6368 31.6162 34.1404 31.6166 32.644Z" fill="white"/>
<path d="M25.3807 23.4055C25.7124 23.5672 26.039 23.8401 26.202 24.1754C26.3405 24.6032 26.2957 25.0927 26.2865 25.5374C26.2826 25.7292 26.2831 25.921 26.2837 26.1128C26.2846 26.4667 26.2823 26.8204 26.2779 27.1742C26.2737 27.524 26.2709 27.8738 26.2701 28.2236C26.2701 28.2455 26.27 28.2673 26.27 28.2898C26.2697 28.4007 26.2695 28.5116 26.2693 28.6225C26.2678 29.4059 26.263 30.1892 26.2562 30.9726C26.2496 31.7332 26.2445 32.4938 26.2414 33.2544C26.2413 33.2779 26.2412 33.3014 26.2411 33.3256C26.2402 33.5614 26.2393 33.7973 26.2384 34.0332C26.2366 34.5136 26.2345 34.994 26.2324 35.4744C26.2323 35.4965 26.2322 35.5186 26.2321 35.5413C26.2255 37.0135 26.2141 38.4857 26.202 39.9579C26.1371 39.8777 26.0766 39.798 26.0215 39.7107C26.0072 39.6882 25.9929 39.6656 25.9781 39.6423C25.9631 39.6184 25.948 39.5944 25.9325 39.5698C25.9168 39.5451 25.9012 39.5203 25.8851 39.4948C25.8366 39.4183 25.7883 39.3417 25.74 39.265C25.6958 39.195 25.6516 39.125 25.6074 39.055C25.5808 39.013 25.5543 38.971 25.5279 38.929C25.51 38.9007 25.51 38.9007 25.4918 38.8718C25.4815 38.8554 25.4711 38.8389 25.4605 38.822C25.4344 38.7811 25.4076 38.7408 25.3807 38.7005C25.3743 38.6506 25.3743 38.6506 25.3744 38.5928C25.3742 38.5597 25.3742 38.5597 25.374 38.5259C25.3742 38.5015 25.3743 38.4772 25.3744 38.4521C25.3744 38.4262 25.3743 38.4003 25.3743 38.3736C25.3741 38.2859 25.3743 38.1982 25.3746 38.1106C25.3746 38.0474 25.3745 37.9842 25.3744 37.9211C25.3744 37.7833 25.3744 37.6456 25.3746 37.5078C25.3749 37.303 25.375 37.0982 25.3749 36.8933C25.3748 36.5488 25.375 36.2043 25.3753 35.8598C25.3756 35.5185 25.3758 35.1773 25.3759 34.8361C25.3759 34.8149 25.3759 34.7937 25.3759 34.7718C25.3759 34.6642 25.3759 34.5565 25.3759 34.4489C25.376 33.6859 25.3764 32.9229 25.3769 32.16C25.3773 31.4186 25.3777 30.6773 25.3779 29.936C25.3779 29.9132 25.3779 29.8903 25.3779 29.8668C25.378 29.6374 25.3781 29.408 25.3781 29.1786C25.3783 28.7114 25.3784 28.2441 25.3786 27.7768C25.3786 27.7553 25.3786 27.7338 25.3786 27.7117C25.3791 26.2763 25.3799 24.8409 25.3807 23.4055Z" fill="white"/>
<path d="M6.26151 31.1556C6.26634 32.6101 6.27083 34.0646 6.27346 35.519C6.2735 35.5406 6.27354 35.5621 6.27358 35.5843C6.27442 36.0524 6.2752 36.5205 6.27592 36.9886C6.27627 37.2182 6.27664 37.4478 6.27701 37.6773C6.27707 37.7116 6.27707 37.7116 6.27713 37.7466C6.27833 38.4866 6.28045 39.2266 6.28304 39.9667C6.28571 40.7273 6.28745 41.488 6.28802 42.2487C6.2881 42.3562 6.28819 42.4638 6.28829 42.5713C6.28831 42.5924 6.28833 42.6136 6.28835 42.6354C6.28868 42.9756 6.28999 43.3158 6.29166 43.656C6.29333 43.9982 6.29396 44.3405 6.29355 44.6828C6.29333 44.886 6.2939 45.0891 6.29561 45.2923C6.2968 45.4443 6.2965 45.5963 6.29564 45.7484C6.29552 45.8096 6.29587 45.8709 6.29676 45.9322C6.30201 46.3162 6.25662 46.5675 6.01238 46.8704C5.96659 46.9286 5.92811 46.9905 5.8897 47.0537C5.87741 47.0732 5.86512 47.0928 5.85246 47.1129C5.82847 47.1512 5.80447 47.1895 5.78048 47.2278C5.70539 47.3472 5.62822 47.4648 5.54835 47.5812C5.51324 47.6333 5.51324 47.6333 5.49163 47.7081C5.47469 47.7081 5.45775 47.7081 5.4403 47.7081C5.42667 46.2171 5.41401 44.7261 5.40662 43.2351C5.40651 43.213 5.4064 43.1909 5.40628 43.1681C5.4039 42.6877 5.4017 42.2072 5.39968 41.7267C5.39868 41.491 5.39765 41.2554 5.3966 41.0197C5.3965 40.9962 5.39639 40.9728 5.39629 40.9486C5.3929 40.1899 5.38693 39.4313 5.3796 38.6726C5.37208 37.8923 5.3672 37.112 5.36559 36.3317C5.36536 36.2212 5.3651 36.1107 5.36482 36.0003C5.36474 35.9677 5.36474 35.9677 5.36466 35.9344C5.36372 35.5858 5.36004 35.2374 5.35531 34.8888C5.3506 34.5376 5.34885 34.1864 5.35001 33.8351C5.35055 33.645 5.34985 33.4552 5.34547 33.2652C5.31721 31.9946 5.31721 31.9946 5.72996 31.563C6.1501 31.1556 6.1501 31.1556 6.26151 31.1556Z" fill="#CE142A"/>
<path d="M20.8383 16.9899C21.1672 17.14 21.4981 17.4359 21.6595 17.7597C21.7955 18.1661 21.7532 18.6373 21.744 19.0595C21.7402 19.2419 21.7406 19.4242 21.7412 19.6067C21.7422 19.9432 21.7398 20.2795 21.7355 20.616C21.7312 20.9486 21.7284 21.2812 21.7277 21.6138C21.7276 21.6346 21.7276 21.6554 21.7275 21.6768C21.7273 21.7822 21.727 21.8877 21.7268 21.9932C21.7253 22.7382 21.7205 23.4831 21.7137 24.2281C21.7071 24.9513 21.702 25.6745 21.699 26.3978C21.6989 26.4201 21.6988 26.4425 21.6987 26.4655C21.6977 26.6898 21.6968 26.9141 21.6959 27.1384C21.6941 27.5953 21.6921 28.0522 21.6899 28.5091C21.6898 28.5301 21.6897 28.5511 21.6896 28.5727C21.683 29.9726 21.6716 31.3725 21.6595 32.7724C21.599 32.6975 21.5413 32.6237 21.4903 32.542C21.4783 32.5229 21.4663 32.5039 21.4539 32.4842C21.4413 32.4639 21.4287 32.4436 21.4157 32.4228C21.3884 32.3793 21.3612 32.3358 21.3339 32.2923C21.3129 32.2589 21.3129 32.2589 21.2916 32.2247C21.222 32.1136 21.152 32.0027 21.0821 31.8919C21.0695 31.8718 21.0568 31.8518 21.0438 31.8311C21.0318 31.8121 21.0198 31.7931 21.0075 31.7735C20.9919 31.7487 20.9919 31.7487 20.976 31.7234C20.9402 31.6656 20.9402 31.6656 20.8882 31.6039C20.8229 31.4875 20.8241 31.4003 20.8256 31.2691C20.8255 31.2444 20.8254 31.2197 20.8253 31.1943C20.825 31.1112 20.8255 31.0281 20.8259 30.945C20.8259 30.8849 20.8258 30.8249 20.8257 30.7649C20.8255 30.6169 20.8257 30.469 20.8262 30.3211C20.8267 30.1439 20.8267 29.9668 20.8266 29.7896C20.8265 29.4626 20.8268 29.1356 20.8274 28.8087C20.828 28.4849 20.8284 28.1611 20.8285 27.8374C20.8285 27.8172 20.8286 27.7971 20.8286 27.7764C20.8286 27.6742 20.8286 27.572 20.8287 27.4698C20.8289 26.7457 20.8296 26.0216 20.8305 25.2975C20.8315 24.5941 20.8322 23.8906 20.8326 23.1872C20.8327 23.1655 20.8327 23.1438 20.8327 23.1215C20.8328 22.9038 20.8329 22.686 20.8331 22.4683C20.8333 22.0248 20.8336 21.5812 20.8339 21.1377C20.8339 21.1173 20.834 21.0969 20.834 21.0759C20.8349 19.7139 20.8365 18.3519 20.8383 16.9899Z" fill="white"/>
<path d="M15.3975 16.9899C15.4036 18.4132 15.4094 19.8364 15.4127 21.2597C15.4127 21.2808 15.4128 21.3019 15.4128 21.3236C15.4139 21.782 15.4149 22.2403 15.4158 22.6986C15.4163 22.9234 15.4167 23.1482 15.4172 23.373C15.4173 23.3953 15.4173 23.4177 15.4174 23.4407C15.4189 24.1649 15.4216 24.8891 15.4249 25.6133C15.4283 26.3579 15.4305 27.1025 15.4312 27.8471C15.4313 27.9524 15.4314 28.0577 15.4316 28.163C15.4316 28.1941 15.4316 28.1941 15.4316 28.2259C15.4321 28.5587 15.4337 28.8915 15.4359 29.2243C15.438 29.5594 15.4388 29.8945 15.4383 30.2296C15.438 30.4283 15.4387 30.6271 15.4409 30.8258C15.4424 30.9748 15.442 31.1237 15.4409 31.2727C15.4408 31.3326 15.4412 31.3924 15.4424 31.4523C15.4501 31.8879 15.3449 32.1541 15.0849 32.5027C15.0069 32.6103 14.9379 32.7235 14.8682 32.8366C14.6959 33.111 14.6959 33.111 14.6276 33.2087C14.6191 33.2087 14.6107 33.2087 14.6019 33.2087C14.5888 31.7467 14.5765 30.2847 14.5693 28.8227C14.5692 28.801 14.5691 28.7794 14.569 28.757C14.5667 28.2859 14.5646 27.8148 14.5626 27.3437C14.5617 27.1126 14.5607 26.8815 14.5597 26.6505C14.5595 26.616 14.5595 26.616 14.5593 26.5808C14.5561 25.8369 14.5503 25.093 14.5432 24.349C14.5359 23.5839 14.5312 22.8188 14.5296 22.0537C14.5294 21.9454 14.5292 21.8371 14.5289 21.7287C14.5288 21.7074 14.5288 21.6861 14.5287 21.6641C14.5278 21.3224 14.5243 20.9807 14.5197 20.6389C14.5151 20.2945 14.5134 19.9501 14.5146 19.6057C14.5151 19.4193 14.5144 19.2332 14.5102 19.0469C14.4828 17.8007 14.4828 17.8007 14.8822 17.3828C15.2877 16.9899 15.2877 16.9899 15.3975 16.9899Z" fill="#CD1127"/>
<path d="M29.9999 31.1556C30.0111 31.1656 30.0223 31.1756 30.0339 31.1859C30.1283 31.2685 30.2234 31.3398 30.3293 31.4076C30.565 31.5792 30.7697 31.7718 30.8308 32.0675C30.8895 32.4526 30.875 32.8476 30.8679 33.236C30.8646 33.422 30.865 33.6079 30.8655 33.7939C30.8663 34.1371 30.8643 34.4801 30.8606 34.8232C30.8569 35.1625 30.8545 35.5018 30.8539 35.8411C30.8538 35.8622 30.8538 35.8834 30.8537 35.9052C30.8535 36.0127 30.8533 36.1202 30.8532 36.2277C30.8519 36.9874 30.8477 37.747 30.8419 38.5067C30.8362 39.2443 30.8319 39.9819 30.8293 40.7196C30.8292 40.7424 30.8291 40.7651 30.829 40.7886C30.8282 41.0173 30.8274 41.246 30.8267 41.4747C30.8251 41.9405 30.8234 42.4062 30.8215 42.872C30.8214 42.8934 30.8213 42.9149 30.8213 42.9369C30.8156 44.3648 30.8058 45.7926 30.7954 47.2205C30.7326 47.1587 30.6786 47.1026 30.6336 47.0266C30.6231 47.009 30.6125 46.9913 30.6016 46.9732C30.5848 46.9447 30.5848 46.9447 30.5677 46.9157C30.4533 46.7252 30.336 46.5369 30.2164 46.3495C30.2008 46.3251 30.1852 46.3006 30.1692 46.2754C30.1133 46.188 30.0574 46.1007 29.9999 46.0143C29.9935 45.9656 29.9935 45.9656 29.9935 45.9095C29.9934 45.888 29.9933 45.8665 29.9932 45.8444C29.9933 45.8208 29.9934 45.7972 29.9936 45.7728C29.9935 45.7476 29.9935 45.7224 29.9934 45.6965C29.9933 45.6113 29.9935 45.5262 29.9937 45.441C29.9937 45.3796 29.9936 45.3183 29.9936 45.2569C29.9935 45.1231 29.9936 44.9893 29.9938 44.8555C29.9941 44.6565 29.9941 44.4575 29.994 44.2585C29.994 43.9238 29.9942 43.5891 29.9945 43.2544C29.9948 42.9229 29.995 42.5914 29.995 42.2599C29.995 42.2393 29.995 42.2187 29.995 42.1975C29.995 42.0929 29.9951 41.9884 29.9951 41.8838C29.9952 41.1426 29.9955 40.4014 29.996 39.6602C29.9965 38.94 29.9969 38.2199 29.9971 37.4997C29.9971 37.4775 29.9971 37.4553 29.9971 37.4325C29.9972 37.2097 29.9972 36.9868 29.9973 36.764C29.9974 36.31 29.9976 35.8561 29.9977 35.4021C29.9977 35.3813 29.9977 35.3604 29.9977 35.3389C29.9982 33.9445 29.999 32.5501 29.9999 31.1556Z" fill="white"/>
<path d="M7.85233 29.9495C7.85717 31.2763 7.86166 32.6032 7.86429 33.9301C7.86432 33.9497 7.86436 33.9694 7.8644 33.9896C7.86525 34.4168 7.86603 34.844 7.86675 35.2711C7.8671 35.4806 7.86747 35.6901 7.86784 35.8996C7.86788 35.9205 7.86791 35.9413 7.86795 35.9628C7.86915 36.6379 7.87127 37.313 7.87387 37.9882C7.87654 38.6822 7.87827 39.3763 7.87884 40.0703C7.87893 40.1685 7.87902 40.2666 7.87912 40.3647C7.87913 40.384 7.87915 40.4034 7.87917 40.4233C7.87951 40.7336 7.88081 41.0439 7.88249 41.3542C7.88416 41.6665 7.88479 41.9788 7.88437 42.2911C7.88418 42.4602 7.88447 42.6293 7.88598 42.7984C7.88736 42.9534 7.88742 43.1084 7.88646 43.2634C7.88634 43.3193 7.88669 43.3752 7.88759 43.431C7.89321 43.8057 7.82793 44.0473 7.60417 44.3506C7.5552 44.4179 7.51204 44.4881 7.46839 44.5589C7.43923 44.6046 7.41003 44.6503 7.38078 44.6959C7.35117 44.7422 7.32156 44.7885 7.29196 44.8348C7.27138 44.8669 7.27138 44.8669 7.25039 44.8997C7.21217 44.9599 7.17484 45.0206 7.13759 45.0814C7.11939 45.1098 7.1012 45.1382 7.08245 45.1674C7.07398 45.1674 7.06552 45.1674 7.05679 45.1674C7.0436 43.8009 7.03134 42.4343 7.02419 41.0677C7.02408 41.0475 7.02398 41.0272 7.02387 41.0063C7.02156 40.5659 7.01943 40.1254 7.01748 39.6849C7.01652 39.4689 7.01552 39.2529 7.0145 39.0368C7.0144 39.0153 7.0143 38.9938 7.01419 38.9717C7.01092 38.2763 7.00514 37.5809 6.99805 36.8856C6.99077 36.1703 6.98604 35.4551 6.98449 34.7398C6.98426 34.6385 6.98401 34.5372 6.98375 34.4359C6.98369 34.416 6.98364 34.3961 6.98359 34.3755C6.98268 34.0561 6.97912 33.7367 6.97454 33.4173C6.96998 33.0953 6.96828 32.7734 6.96941 32.4514C6.96994 32.2772 6.96918 32.1032 6.96502 31.929C6.93912 30.7918 6.93912 30.7918 7.2844 30.4036C7.71953 29.9495 7.71953 29.9495 7.85233 29.9495Z" fill="#CD1127"/>
<path d="M28.3832 29.9238C28.3944 29.9337 28.4056 29.9436 28.4171 29.9537C28.5137 30.038 28.6123 30.113 28.7182 30.1855C28.979 30.3792 29.1974 30.5953 29.2536 30.9261C29.2965 31.274 29.2861 31.6265 29.2789 31.9763C29.2764 32.1298 29.277 32.2833 29.2774 32.4368C29.2782 32.7504 29.2761 33.0639 29.2723 33.3774C29.2685 33.6874 29.266 33.9973 29.2653 34.3073C29.2653 34.3266 29.2652 34.346 29.2652 34.3659C29.265 34.4642 29.2648 34.5625 29.2646 34.6607C29.2632 35.3549 29.2589 36.0491 29.2528 36.7433C29.2469 37.4173 29.2424 38.0912 29.2397 38.7652C29.2396 38.786 29.2395 38.8069 29.2394 38.8283C29.2386 39.0373 29.2378 39.2463 29.237 39.4554C29.2353 39.8811 29.2335 40.3068 29.2316 40.7325C29.2315 40.7521 29.2314 40.7716 29.2313 40.7918C29.2254 42.0964 29.2153 43.401 29.2044 44.7055C29.1445 44.6472 29.0996 44.59 29.0549 44.5192C29.0335 44.4855 29.0335 44.4855 29.0118 44.4512C28.997 44.4277 28.9823 44.4041 28.9671 44.3799C28.9535 44.3585 28.9399 44.3371 28.926 44.315C28.8946 44.2655 28.8642 44.2154 28.8344 44.1649C28.7873 44.0887 28.734 44.0244 28.6744 43.9577C28.2594 43.4551 28.3307 42.8502 28.3386 42.2332C28.3402 42.0677 28.3397 41.9022 28.3394 41.7367C28.3391 41.4505 28.3403 41.1644 28.3425 40.8783C28.3448 40.5786 28.3463 40.2788 28.3467 39.9791C28.3467 39.9603 28.3468 39.9416 28.3468 39.9224C28.3469 39.8273 28.347 39.7323 28.3471 39.6373C28.348 38.966 28.3505 38.2947 28.3542 37.6234C28.3577 36.9717 28.3605 36.3199 28.3621 35.6682C28.3621 35.648 28.3622 35.6279 28.3622 35.6072C28.3627 35.4051 28.3632 35.2029 28.3637 35.0008C28.3647 34.5892 28.3658 34.1775 28.3669 33.7658C28.367 33.7469 28.367 33.728 28.3671 33.7085C28.3706 32.4469 28.3767 31.1854 28.3832 29.9238Z" fill="white"/>
<path d="M22.942 36.3395C22.9699 36.3768 22.9699 36.3768 23.0008 36.4301C23.0125 36.4501 23.0243 36.4701 23.0364 36.4906C23.0491 36.5127 23.0619 36.5348 23.0751 36.5576C23.103 36.605 23.1309 36.6523 23.1589 36.6997C23.1737 36.7247 23.1885 36.7497 23.2037 36.7756C23.2809 36.9046 23.3608 37.0318 23.4408 37.1591C23.4737 37.2115 23.5065 37.2639 23.5394 37.3164C23.5555 37.3419 23.5715 37.3675 23.588 37.3939C23.7004 37.5733 23.8115 37.7534 23.9227 37.9335C23.9651 38.0021 24.0076 38.0706 24.0502 38.1391C24.088 38.2 24.1258 38.261 24.1636 38.3219C24.1908 38.3659 24.2182 38.4098 24.2455 38.4537C24.2622 38.4806 24.2788 38.5075 24.296 38.5352C24.3108 38.5591 24.3256 38.5829 24.3408 38.6075C24.3771 38.6714 24.405 38.7343 24.4304 38.8031C24.4103 38.806 24.3902 38.809 24.3695 38.812C23.9159 38.8798 23.4813 38.967 23.0446 39.111C23.025 39.1174 23.0053 39.1238 22.9851 39.1304C22.0493 39.4373 21.1596 39.8962 20.2823 40.3394C19.9955 40.4832 19.7035 40.6162 19.412 40.7501C19.3737 40.7678 19.3356 40.7859 19.2979 40.8048C19.3119 40.6849 19.3652 40.5978 19.4294 40.4984C19.4405 40.4809 19.4517 40.4633 19.4632 40.4452C19.9111 39.747 20.3953 39.0651 20.9146 38.4182C20.9275 38.402 20.9404 38.3858 20.9538 38.3692C21.105 38.1803 21.2585 37.9934 21.4166 37.8103C21.4347 37.7893 21.4347 37.7893 21.4531 37.7679C21.6876 37.4985 21.9338 37.2406 22.1868 36.9886C22.2302 36.9453 22.2735 36.9019 22.3168 36.8584C22.4609 36.7143 22.6059 36.5731 22.7623 36.4421C22.7867 36.4215 22.811 36.4008 22.8361 36.3796C22.8906 36.3395 22.8906 36.3395 22.942 36.3395Z" fill="white"/>
<path d="M14.1143 35.7493C14.2611 35.8547 14.3955 35.9681 14.5265 36.0925C14.5546 36.1191 14.5546 36.1191 14.5833 36.1463C14.8658 36.4162 15.1286 36.7009 15.3718 37.0067C15.3972 37.0376 15.4226 37.0683 15.4482 37.0991C16.2612 38.0814 16.9789 39.2233 17.4248 40.4199C17.4376 40.4534 17.4505 40.4869 17.4634 40.5204C17.4757 40.5532 17.4879 40.586 17.5002 40.6188C17.511 40.6477 17.5218 40.6767 17.5329 40.7066C17.5531 40.7792 17.5531 40.7792 17.5274 40.8561C17.3862 40.7448 17.2471 40.6313 17.1104 40.5145C16.9529 40.3803 16.7913 40.2519 16.6278 40.1251C16.5743 40.0834 16.5211 40.0415 16.4678 39.9994C16.211 39.7972 15.9494 39.6038 15.6797 39.419C15.6632 39.4077 15.6466 39.3963 15.6295 39.3846C14.734 38.7722 13.7736 38.3024 12.7285 38.0076C12.7718 37.8799 12.8436 37.7736 12.9162 37.6611C12.9443 37.6171 12.9723 37.5731 13.0004 37.5291C13.0149 37.5064 13.0294 37.4837 13.0443 37.4603C13.1137 37.3508 13.1818 37.2406 13.2498 37.1302C13.3876 36.907 13.5265 36.6845 13.6658 36.4622C13.7804 36.279 13.8937 36.095 14.0056 35.9101C14.086 35.7776 14.086 35.7776 14.1143 35.7493Z" fill="white"/>
</svg>
