<svg width="20" height="21" viewBox="0 0 20 21" fill="none" xmlns="http://www.w3.org/2000/svg">
<path d="M17.9667 9.45046L16.8334 8.13379C16.6167 7.88379 16.4417 7.41712 16.4417 7.08379V5.66712C16.4417 4.78379 15.7167 4.05879 14.8334 4.05879H13.4167C13.0917 4.05879 12.6167 3.88379 12.3667 3.66712L11.0501 2.53379C10.4751 2.04212 9.5334 2.04212 8.95007 2.53379L7.64173 3.67546C7.39173 3.88379 6.91673 4.05879 6.59173 4.05879H5.15006C4.26673 4.05879 3.54173 4.78379 3.54173 5.66712V7.09212C3.54173 7.41712 3.36673 7.88379 3.1584 8.13379L2.0334 9.45879C1.55007 10.0338 1.55007 10.9671 2.0334 11.5421L3.1584 12.8671C3.36673 13.1171 3.54173 13.5838 3.54173 13.9088V15.3338C3.54173 16.2171 4.26673 16.9421 5.15006 16.9421H6.59173C6.91673 16.9421 7.39173 17.1171 7.64173 17.3338L8.9584 18.4671C9.5334 18.9588 10.4751 18.9588 11.0584 18.4671L12.3751 17.3338C12.6251 17.1171 13.0917 16.9421 13.4251 16.9421H14.8417C15.7251 16.9421 16.4501 16.2171 16.4501 15.3338V13.9171C16.4501 13.5921 16.6251 13.1171 16.8417 12.8671L17.9751 11.5505C18.4584 10.9755 18.4584 10.0255 17.9667 9.45046ZM13.4667 8.92546L9.44173 12.9505C9.32507 13.0671 9.16673 13.1338 9.00007 13.1338C8.8334 13.1338 8.67507 13.0671 8.5584 12.9505L6.54173 10.9338C6.30007 10.6921 6.30007 10.2921 6.54173 10.0505C6.7834 9.80879 7.1834 9.80879 7.42507 10.0505L9.00007 11.6255L12.5834 8.04212C12.8251 7.80046 13.2251 7.80046 13.4667 8.04212C13.7084 8.28379 13.7084 8.68379 13.4667 8.92546Z" fill="#17AC64"/>
</svg>
