<svg width="50" height="50" viewBox="0 0 50 50" fill="none" xmlns="http://www.w3.org/2000/svg">
<g clip-path="url(#clip0_5212_1365)">
<path d="M40.4916 19.7543C39.8072 12.6243 33.8709 7.03003 26.5626 7.03003C20.9075 7.03003 16.0651 10.3864 13.8336 15.2024C13.1616 14.9883 12.4615 14.843 11.7193 14.843C7.83625 14.843 4.6877 17.9932 4.6877 21.8747C4.6877 22.6466 4.8424 23.3764 5.07209 24.0686C2.05167 25.8298 0 29.0627 0 32.8098C0 38.4196 4.54715 42.9668 10.1569 42.9668V42.9699H38.2821V42.9668C44.7575 42.9668 50 37.7211 50 31.2473C50 25.5343 45.9059 20.7888 40.4916 19.7543ZM30.9066 28.7502H28.1251V35.0193C28.1251 35.8834 27.4282 36.5851 26.5626 36.5851H23.4374C22.575 36.5851 21.8749 35.8834 21.8749 35.0193V28.7502H19.0918C17.3948 28.7502 16.7026 27.6173 17.5495 26.236L23.4577 20.4123C24.6156 19.2559 25.3484 19.217 26.5423 20.4123L32.4505 26.236C33.3005 27.6189 32.6036 28.7502 30.9066 28.7502Z" fill="#39B29D"/>
</g>
<defs>
<clipPath id="clip0_5212_1365">
<rect width="50" height="50" fill="white"/>
</clipPath>
</defs>
</svg>
