<svg width="73" height="69" viewBox="0 0 73 69" fill="none" xmlns="http://www.w3.org/2000/svg">
<path d="M55.846 29.4211L32.1114 44.7787L8.37679 29.4211V5.68643C8.36043 4.93172 8.95899 4.30673 9.71369 4.29037C9.73346 4.28997 9.75322 4.28997 9.77299 4.29037H54.4498C55.2045 4.27401 55.8296 4.87256 55.846 5.62727C55.8463 5.64703 55.8463 5.6668 55.846 5.68656V29.4211Z" fill="#F1F2F2"/>
<path d="M8.3769 29.4215L0 23.8369L8.3769 15.46V29.4215Z" fill="#F6B445"/>
<path d="M64.2241 23.8369L55.8472 29.4215V15.46L64.2241 23.8369Z" fill="#F6B445"/>
<path d="M55.8466 29.2957L64.2235 23.8367V62.9289C64.2209 64.4098 63.6339 65.8297 62.59 66.8801L53.0544 57.3444L37.6966 41.9867L37.3057 41.3863L55.8466 29.2957Z" fill="#FED049"/>
<path d="M53.0536 57.3442L62.5893 66.8799C61.5389 67.9237 60.119 68.5108 58.6381 68.5134H5.58445C4.10357 68.5108 2.68369 67.9237 1.6333 66.8799L11.169 57.3442L26.5266 41.9866L26.9175 41.3862L32.1112 44.7789L37.3049 41.3862L37.6959 41.9866L53.0536 57.3442Z" fill="#F6B445"/>
<path d="M26.9177 41.3863L26.5268 41.9867L11.1692 57.3443L1.6335 66.8799C0.589655 65.8295 0.00261778 64.4097 0 62.9288V23.8367L26.9177 41.3863Z" fill="#FED049"/>
<path d="M55.8471 33.6094C65.0999 33.6094 72.6009 26.1085 72.6009 16.8556C72.6009 7.60274 65.0999 0.101807 55.8471 0.101807C46.5942 0.101807 39.0933 7.60274 39.0933 16.8556C39.0933 26.1085 46.5942 33.6094 55.8471 33.6094Z" fill="#CE1127"/>
<path d="M56.5435 24.5349C55.7724 24.5349 55.1473 23.9097 55.1473 23.1387V13.1813L53.1299 14.5272C52.4884 14.9552 51.6214 14.7821 51.1934 14.1404C50.7654 13.499 50.9386 12.6319 51.5802 12.2039L55.7686 9.41168C56.41 8.98367 57.277 9.15684 57.7049 9.7982C57.858 10.0276 57.9397 10.2974 57.9397 10.5733V23.1387C57.9397 23.9097 57.3146 24.5349 56.5435 24.5349Z" fill="#F1F2F2"/>
</svg>
