<svg width="367" height="606" viewBox="0 0 367 606" fill="none" xmlns="http://www.w3.org/2000/svg">
<path d="M208.545 444.502C216.923 444.786 225.296 445.395 233.605 446.517C234.583 446.648 235.561 446.771 236.54 446.893C243.769 447.824 250.787 449.535 257.725 451.758C257.968 451.835 258.21 451.913 258.46 451.993C269.601 455.605 280.032 461.384 289.168 468.689C289.411 468.883 289.655 469.078 289.906 469.279C290.651 469.882 291.389 470.493 292.124 471.107C292.269 471.227 292.413 471.347 292.562 471.47C294.827 473.354 296.95 475.336 299.008 477.444C299.78 478.235 300.551 479.017 301.379 479.749C303.68 481.853 305.154 484.356 306.731 487.024C307.434 488.206 308.161 489.373 308.887 490.541C309.177 491.009 309.467 491.477 309.756 491.945C310.738 493.529 311.728 495.109 312.717 496.688C314.112 498.918 315.495 501.156 316.863 503.403C317.845 505.014 318.833 506.621 319.822 508.228C319.915 508.379 320.008 508.531 320.104 508.687C321.283 510.602 322.466 512.514 323.661 514.419C324.565 515.862 325.46 517.31 326.355 518.759C327.487 520.591 328.629 522.416 329.782 524.235C331.041 526.221 332.274 528.221 333.497 530.23C334.488 531.857 335.485 533.48 336.484 535.102C336.624 535.329 336.624 535.329 336.766 535.561C337.944 537.475 339.126 539.385 340.32 541.289C341.406 543.02 342.479 544.76 343.553 546.499C344.48 547.999 345.42 549.488 346.39 550.961C346.679 551.462 346.679 551.462 346.679 551.999C328.676 551.999 310.673 551.999 292.124 551.999C291.592 548.673 291.592 548.673 291.049 545.281C290.813 544.117 290.574 542.972 290.293 541.82C290.226 541.537 290.158 541.253 290.088 540.961C289.875 540.071 289.656 539.182 289.437 538.293C289.364 537.992 289.29 537.69 289.215 537.379C284.32 517.275 273.958 498.759 260.527 483.112C260.127 482.644 259.731 482.174 259.335 481.703C257.897 479.998 256.428 478.37 254.829 476.811C254.296 476.278 253.808 475.732 253.324 475.155C252.311 473.974 251.167 472.949 250.012 471.91C249.404 471.364 248.806 470.809 248.213 470.245C246.248 468.383 244.221 466.671 242.073 465.025C241.604 464.66 241.143 464.286 240.685 463.908C230.999 455.933 219.836 450.101 208.545 444.77C208.545 444.682 208.545 444.593 208.545 444.502Z" fill="black"/>
<path d="M151.927 441.458C152.487 441.462 153.046 441.464 153.606 441.465C159.296 441.482 164.982 441.603 170.669 441.797C171.009 441.809 171.348 441.821 171.698 441.833C172.657 441.867 173.616 441.902 174.575 441.939C174.996 441.955 174.996 441.955 175.424 441.971C179.579 442.141 179.579 442.141 180.058 442.621C180.096 443.338 180.07 444.051 180.058 444.77C178.855 445.178 177.651 445.584 176.446 445.989C176.038 446.127 175.63 446.264 175.222 446.403C173.081 447.128 170.957 447.809 168.756 448.333C163.381 449.693 158.182 451.807 153.184 454.176C152.928 454.297 152.671 454.418 152.407 454.543C139.975 460.458 127.967 469.364 119.03 479.908C118.609 480.404 118.182 480.893 117.75 481.379C115.707 483.691 113.801 486.08 111.953 488.55C111.544 489.093 111.13 489.631 110.715 490.169C108.586 492.94 106.668 495.829 104.81 498.788C104.699 498.965 104.588 499.142 104.473 499.324C95.1152 514.334 89.2236 531.222 87.4206 548.821C87.3104 549.881 87.1906 550.94 87.0729 551.999C70.6661 551.999 54.2593 551.999 37.3553 551.999C37.7355 551.049 38.0575 550.332 38.5867 549.488C38.7936 549.156 38.7936 549.156 39.0046 548.818C39.1532 548.582 39.3018 548.346 39.4549 548.102C39.7727 547.594 40.0904 547.085 40.4081 546.576C40.5708 546.316 40.7334 546.056 40.901 545.789C41.5098 544.814 42.1134 543.837 42.7167 542.859C43.9577 540.848 45.2092 538.844 46.4758 536.849C47.8341 534.708 49.1536 532.546 50.467 530.378C51.4548 528.75 52.4582 527.134 53.48 525.528C54.6784 523.643 55.849 521.743 57.0072 519.834C58.376 517.577 59.7592 515.331 61.1635 513.097C61.9466 511.85 62.7269 510.601 63.5074 509.353C63.7667 508.938 63.7667 508.938 64.0312 508.515C65.2748 506.525 66.5116 504.531 67.7451 502.535C68.8624 500.727 69.9885 498.926 71.1162 497.125C72.4108 495.057 73.6952 492.984 74.9639 490.9C76.3314 488.655 77.7175 486.422 79.1027 484.188C79.6887 483.243 80.2741 482.297 80.8594 481.351C81.1499 480.882 81.4404 480.413 81.7309 479.944C82.4628 478.762 83.1942 477.579 83.9246 476.396C85.4635 473.905 87.0133 471.421 88.5818 468.948C89.3703 467.702 90.1478 466.45 90.9132 465.19C91.1622 464.781 91.4129 464.374 91.6654 463.967C92.2256 463.063 92.7635 462.164 93.2403 461.213C94.7763 458.286 97.1726 457.076 100.057 455.619C100.713 455.285 101.356 454.936 101.998 454.576C107.638 451.443 113.749 448.967 119.86 446.92C120.109 446.835 120.359 446.75 120.617 446.662C124.437 445.37 128.311 444.38 132.239 443.477C132.563 443.401 132.563 443.401 132.895 443.323C139.217 441.851 145.445 441.41 151.927 441.458Z" fill="black"/>
<path d="M185.702 454.714C185.702 486.818 185.702 518.922 185.702 551.999C165.038 551.999 144.374 551.999 123.084 551.999C123.621 550.209 124.173 548.512 124.876 546.793C124.971 546.56 125.065 546.327 125.163 546.087C125.47 545.33 125.78 544.575 126.091 543.819C126.252 543.428 126.252 543.428 126.415 543.028C130.507 533.068 135.035 523.273 140.444 513.954C140.904 513.158 141.352 512.355 141.8 511.551C146.714 502.728 152.309 494.089 158.471 486.085C158.919 485.5 159.362 484.912 159.806 484.324C161.903 481.55 164.035 478.813 166.247 476.131C166.784 475.478 167.315 474.821 167.847 474.164C169.884 471.679 171.984 469.248 174.143 466.868C174.642 466.315 175.135 465.757 175.624 465.195C184.774 454.714 184.774 454.714 185.702 454.714Z" fill="black"/>
<path d="M200.483 455.251C201.538 456.306 202.474 457.34 203.405 458.493C203.555 458.678 203.705 458.864 203.86 459.054C205.587 461.203 207.23 463.415 208.873 465.628C209.316 466.223 209.762 466.816 210.21 467.407C211.971 469.733 213.676 472.094 215.346 474.487C215.848 475.206 216.352 475.923 216.856 476.641C218.863 479.504 220.835 482.382 222.706 485.335C223.06 485.893 223.417 486.447 223.775 487.002C226.326 490.976 228.718 495.046 231.109 499.118C231.357 499.541 231.606 499.963 231.854 500.386C237.406 509.836 242.255 519.685 246.706 529.693C246.786 529.872 246.865 530.05 246.947 530.233C249.618 536.239 252.023 542.326 254.265 548.505C254.37 548.794 254.475 549.084 254.583 549.381C254.678 549.647 254.774 549.912 254.872 550.185C254.956 550.419 255.04 550.653 255.127 550.895C255.306 551.462 255.306 551.462 255.306 551.999C237.214 551.999 219.123 551.999 200.483 551.999C200.483 520.072 200.483 488.146 200.483 455.251Z" fill="black"/>
<path d="M191.883 302.336C192.921 303.257 193.526 304.302 194.201 305.494C194.439 305.908 194.679 306.322 194.919 306.735C195.04 306.944 195.161 307.153 195.286 307.368C195.826 308.288 196.388 309.193 196.955 310.096C197.065 310.271 197.174 310.445 197.287 310.625C197.894 311.589 198.505 312.552 199.115 313.514C200.662 315.957 202.19 318.409 203.694 320.879C204.684 322.506 205.682 324.128 206.68 325.751C206.774 325.902 206.867 326.054 206.963 326.21C208.142 328.125 209.325 330.037 210.52 331.942C211.424 333.385 212.319 334.833 213.214 336.282C214.346 338.114 215.488 339.939 216.641 341.758C217.729 343.477 218.812 345.2 219.882 346.931C220.072 347.234 220.072 347.234 220.265 347.543C220.381 347.732 220.497 347.92 220.616 348.114C220.718 348.279 220.82 348.443 220.925 348.613C221.209 349.162 221.391 349.553 221.444 350.173C221.118 350.773 221.118 350.773 220.625 351.42C217.625 355.482 215.184 359.949 212.845 364.416C212.705 364.682 212.565 364.949 212.421 365.223C209.953 369.949 207.84 374.79 205.857 379.735C205.732 380.047 205.607 380.359 205.478 380.68C202.707 387.643 200.497 394.741 198.486 401.953C198.373 402.358 198.259 402.763 198.144 403.168C197.451 405.621 196.826 408.077 196.287 410.569C195.949 412.124 195.548 413.651 195.091 415.175C194.952 415.648 194.814 416.122 194.676 416.595C194.612 416.817 194.547 417.039 194.481 417.267C194.117 418.543 193.8 419.83 193.495 421.121C193.406 421.121 193.318 421.121 193.226 421.121C193.174 420.777 193.122 420.434 193.069 420.08C192.998 419.621 192.928 419.161 192.857 418.702C192.806 418.364 192.806 418.364 192.754 418.019C192.568 416.817 192.33 415.662 192.02 414.485C191.772 413.364 191.644 412.225 191.488 411.088C188.31 389.163 180.94 361.941 167.122 344.249C166.758 343.425 166.904 342.971 167.158 342.11C167.578 341.309 168.07 340.563 168.569 339.809C168.866 339.351 169.162 338.893 169.458 338.434C169.612 338.198 169.765 337.962 169.923 337.718C170.658 336.578 171.369 335.422 172.08 334.266C173.354 332.201 174.638 330.142 175.926 328.085C177.221 326.018 178.505 323.944 179.774 321.86C181.141 319.615 182.527 317.382 183.913 315.148C184.644 313.969 185.374 312.788 186.105 311.608C186.247 311.379 186.389 311.15 186.535 310.913C187.3 309.678 188.065 308.442 188.829 307.205C188.989 306.947 189.148 306.689 189.313 306.423C189.62 305.926 189.927 305.43 190.233 304.933C190.44 304.599 190.44 304.599 190.651 304.257C190.833 303.963 190.833 303.963 191.019 303.663C191.299 303.216 191.59 302.775 191.883 302.336Z" fill="black"/>
<path d="M187.852 27.6806C188.472 28.2127 189.093 28.7448 189.733 29.293C190.255 29.6926 190.777 30.0916 191.3 30.4898C194.084 32.7306 196.393 34.9685 196.855 38.6428C197.064 40.9387 197.023 43.2436 196.971 45.5456C196.949 46.8712 196.965 48.1965 196.975 49.5222C196.988 51.8399 196.978 54.1565 196.952 56.4741C196.912 59.92 196.911 63.3652 196.916 66.8112C196.925 72.6091 196.903 78.4065 196.865 84.2042C196.826 89.9416 196.802 95.6787 196.795 101.416C196.794 101.684 196.794 101.684 196.794 101.957C196.792 103.588 196.79 105.218 196.788 106.849C196.784 110.902 196.778 114.954 196.771 119.007C196.77 119.191 196.77 119.376 196.77 119.566C196.753 128.529 196.712 137.493 196.669 146.456C196.655 149.565 196.64 152.673 196.626 155.782C196.624 156.071 196.624 156.071 196.623 156.366C196.582 165.338 196.558 174.309 196.538 183.281C196.537 183.864 196.536 184.447 196.534 185.03C196.526 188.892 196.518 192.755 196.51 196.617C196.494 204.302 196.476 211.987 196.457 219.671C196.456 220.037 196.455 220.403 196.454 220.769C196.395 245.092 196.292 269.414 196.183 293.737C195.129 292.71 194.396 291.505 193.596 290.277C193.435 290.035 193.275 289.794 193.109 289.545C192.956 289.31 192.803 289.076 192.645 288.834C192.435 288.515 192.435 288.515 192.221 288.189C191.866 287.523 191.723 286.955 191.614 286.212C191.437 286.212 191.259 286.212 191.077 286.212C190.977 286.554 190.977 286.554 190.875 286.904C190.511 287.9 190.026 288.762 189.464 289.655C189.321 289.891 189.321 289.891 189.174 290.131C188.459 291.283 188.459 291.283 187.852 291.587C187.852 204.498 187.852 117.409 187.852 27.6806Z" fill="#B4932C"/>
<path d="M213.114 76.5919C213.114 157.118 213.114 237.644 213.114 320.611C212.285 319.782 211.72 318.915 211.115 317.924C210.876 317.536 210.636 317.149 210.397 316.761C210.271 316.557 210.145 316.353 210.015 316.143C209.336 315.047 208.646 313.957 207.957 312.868C207.766 312.565 207.766 312.565 207.571 312.256C207.445 312.057 207.319 311.858 207.19 311.653C207.011 311.365 207.011 311.365 206.829 311.071C206.403 310.394 206.403 310.394 205.915 309.764C204.438 307.723 204.241 306.1 204.26 303.622C204.256 303.241 204.251 302.86 204.246 302.479C204.234 301.435 204.233 300.391 204.234 299.347C204.233 298.21 204.221 297.073 204.211 295.936C204.193 293.682 204.184 291.428 204.179 289.174C204.173 286.474 204.155 283.774 204.138 281.073C204.096 274.546 204.074 268.019 204.055 261.492C204.046 258.402 204.035 255.312 204.025 252.222C203.988 241.639 203.958 231.056 203.942 220.473C203.937 217.808 203.933 215.142 203.929 212.477C203.929 212.146 203.928 211.815 203.927 211.473C203.91 200.744 203.862 190.014 203.796 179.285C203.728 168.247 203.686 157.208 203.679 146.17C203.678 144.609 203.677 143.048 203.676 141.487C203.675 141.18 203.675 140.873 203.675 140.556C203.67 135.624 203.638 130.693 203.596 125.761C203.555 120.798 203.543 115.835 203.562 110.872C203.571 108.185 203.568 105.5 203.527 102.814C203.267 84.7784 203.267 84.7784 207.438 80.3333C211.338 76.5919 211.338 76.5919 213.114 76.5919Z" fill="#B5942F"/>
<path d="M170.921 89.2228C171.542 89.7549 172.162 90.2871 172.802 90.8353C173.064 91.0458 173.325 91.2563 173.595 91.4731C176.583 93.8923 179.452 96.2641 179.988 100.264C180.097 101.955 180.106 103.63 180.064 105.323C180.045 106.39 180.064 107.456 180.078 108.523C180.097 110.386 180.092 112.248 180.071 114.111C180.041 116.881 180.047 119.65 180.061 122.42C180.085 127.369 180.072 132.318 180.044 137.267C180.02 141.597 180.009 145.928 180.01 150.258C180.01 150.546 180.011 150.834 180.011 151.13C180.011 152.299 180.012 153.467 180.012 154.636C180.018 165.585 179.988 176.534 179.941 187.484C179.899 197.202 179.883 206.92 179.89 216.638C179.89 217.262 179.891 217.887 179.891 218.511C179.892 218.819 179.892 219.128 179.892 219.446C179.893 220.999 179.894 222.553 179.895 224.106C179.895 224.566 179.895 224.566 179.896 225.035C179.901 233.167 179.887 241.299 179.868 249.431C179.867 249.865 179.867 249.865 179.866 250.308C179.865 250.741 179.865 250.741 179.864 251.183C179.863 251.472 179.863 251.76 179.862 252.057C179.861 252.638 179.859 253.218 179.858 253.799C179.848 257.84 179.845 261.881 179.847 265.922C179.848 271.13 179.837 276.338 179.805 281.546C179.788 284.298 179.781 287.049 179.789 289.8C179.794 291.642 179.784 293.483 179.764 295.324C179.753 296.371 179.747 297.417 179.758 298.464C179.808 303.498 179.167 307.05 175.978 311.098C175.141 312.202 174.432 313.385 173.709 314.564C171.917 317.421 171.917 317.421 171.19 318.461C171.101 318.461 171.012 318.461 170.921 318.461C170.921 242.812 170.921 167.164 170.921 89.2228Z" fill="#B4932C"/>
<path d="M127.922 205.051C127.954 222.384 127.984 239.718 128.002 257.051C128.002 257.307 128.002 257.564 128.002 257.828C128.008 263.402 128.013 268.977 128.018 274.551C128.02 277.284 128.023 280.018 128.025 282.751C128.026 283.023 128.026 283.295 128.026 283.576C128.034 292.394 128.048 301.213 128.066 310.032C128.083 319.093 128.095 328.155 128.099 337.216C128.099 338.496 128.1 339.775 128.1 341.055C128.101 341.433 128.101 341.433 128.101 341.818C128.103 345.874 128.112 349.929 128.123 353.985C128.134 358.061 128.138 362.137 128.136 366.214C128.134 368.636 128.138 371.058 128.149 373.481C128.156 375.099 128.157 376.717 128.151 378.335C128.148 379.257 128.148 380.179 128.157 381.101C128.164 382.095 128.16 383.089 128.153 384.083C128.158 384.368 128.163 384.654 128.168 384.948C128.134 387.121 127.374 388.282 126.041 389.947C125.753 390.388 125.471 390.833 125.197 391.283C124.992 391.617 124.992 391.617 124.783 391.959C124.644 392.187 124.505 392.416 124.361 392.651C123.213 394.52 122.055 396.383 120.867 398.227C120.742 398.423 120.617 398.619 120.488 398.821C120.197 399.272 119.895 399.716 119.591 400.159C119.502 400.159 119.414 400.159 119.322 400.159C119.179 382.47 119.047 364.781 118.969 347.092C118.968 346.83 118.967 346.567 118.966 346.297C118.941 340.599 118.918 334.9 118.897 329.202C118.886 326.407 118.876 323.612 118.865 320.817C118.863 320.4 118.863 320.4 118.861 319.974C118.826 310.973 118.763 301.973 118.687 292.972C118.608 283.716 118.557 274.46 118.54 265.204C118.537 263.894 118.535 262.584 118.532 261.274C118.531 261.017 118.531 260.759 118.53 260.493C118.52 256.358 118.482 252.222 118.432 248.087C118.383 243.921 118.364 239.755 118.377 235.589C118.382 233.334 118.375 231.082 118.329 228.827C118.033 213.727 118.033 213.727 122.356 209.182C126.636 205.051 126.636 205.051 127.922 205.051Z" fill="#CE142A"/>
<path d="M96.7477 256.919C96.803 273.962 96.8543 291.004 96.8843 308.047C96.8847 308.3 96.8852 308.552 96.8856 308.812C96.8953 314.297 96.9042 319.782 96.9124 325.268C96.9164 327.958 96.9206 330.648 96.9249 333.338C96.9255 333.739 96.9255 333.739 96.9262 334.149C96.9399 342.82 96.9641 351.492 96.9938 360.163C97.0242 369.077 97.0441 377.99 97.0506 386.903C97.0515 388.163 97.0526 389.423 97.0537 390.683C97.0539 390.931 97.0541 391.179 97.0544 391.434C97.0582 395.421 97.0731 399.407 97.0923 403.393C97.1113 407.404 97.1185 411.414 97.1138 415.425C97.1113 417.806 97.1178 420.186 97.1373 422.567C97.1494 424.161 97.1497 425.754 97.1406 427.347C97.1358 428.254 97.1376 429.159 97.1505 430.065C97.2099 434.527 96.7052 437.496 93.9071 441.048C93.3606 441.756 92.9 442.5 92.4321 443.262C92.1295 443.737 91.8268 444.212 91.524 444.686C91.2164 445.169 90.9088 445.652 90.6013 446.134C90.4593 446.357 90.3173 446.579 90.171 446.808C89.7732 447.438 89.384 448.071 88.9951 448.706C88.8042 449.004 88.6134 449.301 88.4167 449.608C88.328 449.608 88.2393 449.608 88.1479 449.608C88.005 432.149 87.8726 414.691 87.7952 397.232C87.794 396.973 87.7929 396.715 87.7917 396.448C87.7668 390.824 87.7437 385.199 87.7225 379.575C87.7121 376.816 87.7013 374.058 87.6903 371.299C87.6887 370.887 87.6887 370.887 87.687 370.467C87.6516 361.584 87.589 352.7 87.5123 343.817C87.4336 334.682 87.3824 325.546 87.3655 316.411C87.3631 315.118 87.3604 313.825 87.3575 312.532C87.357 312.278 87.3564 312.023 87.3558 311.761C87.346 307.679 87.3075 303.598 87.2579 299.516C87.2086 295.404 87.1902 291.293 87.2024 287.181C87.2081 284.956 87.2007 282.733 87.1548 280.508C86.8589 265.606 86.8589 265.606 91.1813 261.065C95.4752 256.919 95.4752 256.919 96.7477 256.919Z" fill="#CE142A"/>
<path d="M251.813 205.051C251.93 205.156 252.047 205.261 252.167 205.368C253.171 206.251 254.175 206.981 255.32 207.676C258.016 209.507 260.165 211.752 260.799 215.039C261.445 219.613 261.28 224.313 261.203 228.921C261.167 231.138 261.171 233.354 261.177 235.57C261.185 239.66 261.163 243.748 261.123 247.837C261.083 251.881 261.057 255.925 261.05 259.969C261.049 260.222 261.049 260.474 261.049 260.733C261.046 262.014 261.044 263.295 261.042 264.575C261.028 273.629 260.983 282.683 260.919 291.737C260.858 300.528 260.81 309.32 260.782 318.112C260.781 318.383 260.78 318.654 260.779 318.934C260.77 321.659 260.761 324.384 260.753 327.109C260.736 332.66 260.717 338.211 260.697 343.761C260.696 344.017 260.695 344.272 260.694 344.535C260.632 361.553 260.526 378.572 260.412 395.59C259.706 394.717 259.063 393.85 258.474 392.894C258.23 392.5 258.23 392.5 257.981 392.098C257.813 391.826 257.646 391.554 257.473 391.274C257.146 390.744 256.819 390.214 256.492 389.685C256.323 389.405 256.154 389.125 255.98 388.837C255.509 388.083 254.995 387.391 254.441 386.696C251.536 382.909 251.32 379.701 251.393 375.042C251.393 374.306 251.388 373.569 251.384 372.833C251.376 371.241 251.382 369.649 251.396 368.057C251.417 365.69 251.418 363.323 251.415 360.955C251.411 356.972 251.422 352.989 251.443 349.005C251.464 345.064 251.477 341.123 251.481 337.182C251.481 336.937 251.482 336.691 251.482 336.438C251.483 335.191 251.484 333.944 251.485 332.697C251.493 323.877 251.516 315.056 251.549 306.236C251.581 297.669 251.606 289.103 251.621 280.537C251.621 280.273 251.622 280.008 251.622 279.736C251.627 277.082 251.631 274.427 251.636 271.773C251.644 266.367 251.654 260.96 251.665 255.554C251.665 255.305 251.666 255.056 251.666 254.8C251.698 238.217 251.754 221.634 251.813 205.051Z" fill="#020202"/>
<path d="M282.718 256.919C282.835 257.023 282.952 257.128 283.072 257.236C284.077 258.118 285.084 258.853 286.226 259.554C288.898 261.384 291.065 263.616 291.704 266.884C292.349 271.378 292.185 275.999 292.108 280.528C292.072 282.705 292.077 284.881 292.082 287.059C292.091 291.075 292.069 295.091 292.028 299.107C291.988 303.079 291.963 307.051 291.955 311.024C291.955 311.271 291.954 311.519 291.954 311.774C291.952 313.032 291.95 314.29 291.948 315.548C291.934 324.441 291.888 333.334 291.825 342.227C291.763 350.862 291.715 359.497 291.687 368.132C291.686 368.399 291.685 368.665 291.684 368.94C291.675 371.617 291.667 374.293 291.658 376.97C291.641 382.422 291.622 387.874 291.602 393.326C291.601 393.577 291.601 393.828 291.6 394.086C291.538 410.802 291.431 427.517 291.318 444.233C290.632 443.559 290.053 442.933 289.546 442.116C289.42 441.915 289.295 441.714 289.165 441.507C288.967 441.185 288.967 441.185 288.765 440.857C288.479 440.399 288.194 439.941 287.908 439.484C287.762 439.248 287.616 439.013 287.465 438.77C286.739 437.604 286.005 436.442 285.271 435.28C285.139 435.07 285.007 434.861 284.871 434.644C284.745 434.445 284.619 434.246 284.49 434.041C284.327 433.781 284.327 433.781 284.16 433.516C283.788 432.912 283.788 432.912 283.241 432.286C282.449 431.087 282.572 429.804 282.586 428.411C282.585 428.115 282.583 427.818 282.582 427.513C282.579 426.515 282.584 425.516 282.589 424.518C282.588 423.797 282.587 423.076 282.586 422.355C282.584 420.786 282.586 419.216 282.59 417.646C282.596 415.311 282.597 412.977 282.596 410.642C282.594 406.716 282.598 402.789 282.604 398.862C282.611 394.973 282.615 391.085 282.616 387.196C282.616 386.954 282.616 386.713 282.616 386.464C282.617 385.236 282.617 384.009 282.617 382.782C282.62 374.086 282.627 365.39 282.637 356.694C282.647 348.245 282.654 339.797 282.659 331.348C282.659 331.088 282.659 330.827 282.659 330.559C282.661 327.944 282.662 325.33 282.664 322.715C282.666 317.388 282.669 312.062 282.673 306.735C282.673 306.49 282.673 306.245 282.673 305.993C282.683 289.635 282.7 273.277 282.718 256.919Z" fill="#040404"/>
<path d="M234.882 189.733C238.373 191.439 241.785 194.244 243.482 197.795C244.942 202.409 244.463 207.717 244.367 212.515C244.327 214.593 244.332 216.67 244.338 218.748C244.347 222.581 244.323 226.412 244.277 230.245C244.233 234.034 244.204 237.823 244.196 241.612C244.195 241.849 244.195 242.085 244.194 242.329C244.191 243.53 244.189 244.731 244.187 245.932C244.171 254.417 244.121 262.903 244.049 271.388C243.98 279.627 243.927 287.865 243.895 296.104C243.894 296.359 243.893 296.613 243.892 296.875C243.882 299.43 243.872 301.985 243.863 304.539C243.844 309.743 243.823 314.946 243.8 320.149C243.799 320.389 243.798 320.628 243.797 320.874C243.728 336.822 243.609 352.769 243.482 368.716C242.803 367.875 242.169 367.041 241.592 366.127C241.442 365.891 241.292 365.654 241.138 365.411C240.98 365.16 240.822 364.909 240.66 364.651C240.496 364.392 240.332 364.133 240.163 363.866C239.656 363.065 239.15 362.262 238.644 361.46C238.181 360.727 237.718 359.993 237.255 359.26C236.977 358.82 236.7 358.381 236.422 357.94C236.236 357.644 236.236 357.644 236.045 357.342C235.937 357.17 235.828 356.998 235.717 356.82C235.444 356.392 235.163 355.97 234.882 355.548C234.815 355.011 234.815 355.011 234.815 354.384C234.814 354.145 234.813 353.905 234.811 353.659C234.813 353.395 234.814 353.131 234.816 352.859C234.815 352.578 234.814 352.297 234.814 352.008C234.812 351.057 234.815 350.106 234.817 349.156C234.817 348.471 234.816 347.786 234.816 347.102C234.815 345.608 234.816 344.115 234.818 342.622C234.821 340.401 234.821 338.18 234.821 335.96C234.82 332.224 234.822 328.489 234.825 324.754C234.828 321.055 234.83 317.355 234.831 313.656C234.831 313.426 234.831 313.196 234.831 312.959C234.831 311.792 234.831 310.625 234.831 309.458C234.833 301.186 234.836 292.915 234.841 284.643C234.846 276.606 234.85 268.569 234.852 260.532C234.852 260.285 234.852 260.037 234.853 259.782C234.853 257.295 234.854 254.808 234.855 252.322C234.856 247.256 234.857 242.19 234.859 237.124C234.859 236.891 234.859 236.658 234.859 236.418C234.864 220.856 234.873 205.294 234.882 189.733Z" fill="#040404"/>
<path d="M113.41 244.288C113.474 260.013 113.534 275.737 113.569 291.462C113.57 291.812 113.57 291.812 113.571 292.168C113.582 297.231 113.592 302.294 113.602 307.357C113.607 309.84 113.612 312.324 113.616 314.807C113.617 315.054 113.617 315.301 113.618 315.556C113.634 323.557 113.662 331.558 113.697 339.558C113.732 347.784 113.756 356.01 113.763 364.236C113.764 365.399 113.765 366.563 113.767 367.726C113.767 368.07 113.767 368.07 113.768 368.42C113.772 372.097 113.789 375.774 113.812 379.451C113.834 383.153 113.842 386.855 113.837 390.557C113.834 392.753 113.842 394.949 113.864 397.145C113.88 398.79 113.876 400.435 113.865 402.081C113.863 402.742 113.868 403.404 113.88 404.066C113.959 408.765 112.926 411.67 110.086 415.426C109.507 416.204 109.001 417.011 108.495 417.838C108.342 418.08 108.189 418.322 108.032 418.571C107.732 419.045 107.432 419.521 107.133 419.996C106.984 420.232 106.835 420.468 106.681 420.711C106.553 420.914 106.425 421.117 106.293 421.326C105.833 422.005 105.325 422.633 104.81 423.271C104.667 407.119 104.535 390.968 104.457 374.815C104.456 374.576 104.455 374.337 104.454 374.09C104.429 368.885 104.406 363.681 104.385 358.476C104.374 355.924 104.363 353.371 104.352 350.818C104.351 350.564 104.35 350.31 104.349 350.048C104.314 341.829 104.251 333.611 104.174 325.392C104.096 316.94 104.044 308.487 104.028 300.034C104.025 298.838 104.022 297.641 104.02 296.445C104.019 296.209 104.018 295.974 104.018 295.731C104.008 291.955 103.97 288.18 103.92 284.404C103.871 280.599 103.852 276.795 103.864 272.99C103.87 270.931 103.863 268.875 103.817 266.816C103.521 253.045 103.521 253.045 107.843 248.518C112.212 244.288 112.212 244.288 113.41 244.288Z" fill="#CE1328"/>
<path d="M144.584 189.733C144.639 205.956 144.69 222.179 144.72 238.402C144.721 238.762 144.721 238.762 144.722 239.13C144.731 244.352 144.74 249.573 144.749 254.795C144.753 257.356 144.757 259.917 144.761 262.478C144.762 262.86 144.762 262.86 144.762 263.25C144.776 271.504 144.8 279.758 144.83 288.013C144.86 296.498 144.88 304.983 144.887 313.468C144.888 314.667 144.889 315.867 144.89 317.066C144.89 317.302 144.89 317.538 144.891 317.781C144.894 321.576 144.909 325.37 144.928 329.164C144.947 332.982 144.955 336.8 144.95 340.618C144.947 342.884 144.954 345.15 144.973 347.416C144.986 348.934 144.986 350.45 144.977 351.968C144.972 352.83 144.974 353.692 144.987 354.554C145.048 358.931 144.452 361.782 141.733 365.272C141.239 365.916 140.815 366.596 140.395 367.29C140.267 367.493 140.14 367.696 140.008 367.906C139.76 368.299 139.512 368.694 139.265 369.088C138.602 370.139 137.932 371.185 137.25 372.224C137.051 372.529 137.051 372.529 136.847 372.839C136.686 373.06 136.686 373.06 136.522 373.285C136.433 373.285 136.344 373.285 136.253 373.285C136.115 356.668 135.986 340.051 135.911 323.434C135.91 323.188 135.909 322.942 135.908 322.688C135.884 317.334 135.862 311.981 135.841 306.627C135.831 304.002 135.821 301.376 135.81 298.75C135.809 298.489 135.808 298.228 135.807 297.959C135.772 289.503 135.712 281.048 135.638 272.593C135.562 263.898 135.512 255.203 135.496 246.507C135.493 245.277 135.491 244.046 135.488 242.815C135.487 242.573 135.487 242.331 135.486 242.082C135.477 238.197 135.439 234.312 135.392 230.428C135.344 226.514 135.326 222.6 135.338 218.686C135.343 216.568 135.336 214.452 135.292 212.335C135.005 198.155 135.005 198.155 139.188 193.763C143.359 189.733 143.359 189.733 144.584 189.733Z" fill="#CD1127"/>
<path d="M331.092 341.035C331.21 341.14 331.327 341.245 331.448 341.353C332.435 342.219 333.421 342.949 334.542 343.637C337.092 345.444 339.173 347.494 339.794 350.664C340.413 354.972 340.256 359.392 340.182 363.735C340.147 365.821 340.152 367.906 340.157 369.991C340.165 373.839 340.144 377.686 340.105 381.533C340.067 385.338 340.042 389.143 340.035 392.948C340.035 393.186 340.034 393.423 340.034 393.667C340.031 394.872 340.029 396.078 340.028 397.283C340.014 405.802 339.971 414.32 339.91 422.839C339.85 431.111 339.805 439.383 339.777 447.656C339.776 447.911 339.776 448.166 339.775 448.429C339.766 450.993 339.758 453.558 339.75 456.122C339.734 461.345 339.715 466.567 339.696 471.79C339.695 472.03 339.694 472.271 339.693 472.518C339.634 488.531 339.532 504.543 339.423 520.556C338.726 519.692 338.072 518.829 337.465 517.899C337.22 517.524 337.22 517.524 336.97 517.141C336.798 516.877 336.627 516.613 336.45 516.34C336.273 516.068 336.096 515.796 335.913 515.516C334.653 513.572 333.426 511.609 332.231 509.624C331.728 508.725 331.728 508.725 331.092 507.925C331.066 507.558 331.059 507.19 331.059 506.822C331.058 506.582 331.057 506.342 331.057 506.095C331.057 505.828 331.058 505.561 331.059 505.286C331.059 505.004 331.058 504.722 331.058 504.431C331.057 503.473 331.058 502.515 331.06 501.557C331.06 500.868 331.059 500.18 331.059 499.491C331.058 497.987 331.059 496.484 331.06 494.98C331.062 492.744 331.062 490.508 331.061 488.272C331.061 484.511 331.062 480.75 331.064 476.989C331.065 473.264 331.066 469.539 331.066 465.813C331.066 465.582 331.067 465.35 331.067 465.112C331.067 463.937 331.067 462.762 331.067 461.588C331.067 453.259 331.069 444.93 331.072 436.602C331.074 428.509 331.076 420.416 331.077 412.324C331.077 412.074 331.077 411.825 331.077 411.568C331.078 409.065 331.078 406.561 331.078 404.058C331.079 398.957 331.08 393.857 331.081 388.756C331.081 388.522 331.081 388.287 331.081 388.046C331.083 372.376 331.087 356.706 331.092 341.035Z" fill="black"/>
<path d="M265.787 244.288C269.26 245.981 272.68 248.839 274.387 252.35C275.838 256.83 275.369 261.957 275.272 266.614C275.232 268.622 275.237 270.63 275.243 272.639C275.253 276.345 275.228 280.049 275.183 283.754C275.138 287.418 275.109 291.08 275.101 294.744C275.101 294.973 275.1 295.201 275.099 295.437C275.097 296.598 275.095 297.759 275.093 298.92C275.077 307.125 275.026 315.328 274.955 323.532C274.886 331.497 274.832 339.462 274.8 347.427C274.799 347.673 274.798 347.919 274.797 348.172C274.788 350.642 274.778 353.112 274.769 355.582C274.75 360.613 274.728 365.644 274.706 370.675C274.705 370.906 274.704 371.137 274.703 371.376C274.633 386.793 274.514 402.21 274.387 417.627C273.708 416.787 273.075 415.952 272.498 415.039C272.348 414.802 272.198 414.566 272.043 414.322C271.886 414.071 271.728 413.821 271.565 413.563C271.401 413.304 271.237 413.045 271.069 412.778C270.561 411.976 270.056 411.174 269.55 410.371C269.087 409.638 268.624 408.905 268.16 408.172C267.883 407.732 267.605 407.292 267.328 406.852C267.141 406.555 267.141 406.555 266.95 406.253C266.842 406.081 266.734 405.909 266.622 405.732C266.349 405.304 266.069 404.881 265.787 404.459C265.72 403.937 265.72 403.937 265.721 403.332C265.719 402.985 265.719 402.985 265.717 402.631C265.718 402.376 265.72 402.121 265.721 401.858C265.721 401.587 265.72 401.316 265.719 401.036C265.718 400.118 265.72 399.2 265.723 398.281C265.722 397.62 265.722 396.959 265.721 396.297C265.72 394.855 265.721 393.412 265.723 391.97C265.727 389.824 265.727 387.679 265.726 385.534C265.725 381.927 265.727 378.319 265.731 374.711C265.734 371.137 265.736 367.564 265.736 363.99C265.736 363.768 265.736 363.546 265.736 363.317C265.737 362.19 265.737 361.063 265.737 359.935C265.738 351.945 265.742 343.956 265.747 335.966C265.752 328.202 265.756 320.439 265.758 312.676C265.758 312.437 265.758 312.198 265.758 311.951C265.759 309.549 265.759 307.147 265.76 304.745C265.761 299.851 265.763 294.958 265.765 290.064C265.765 289.839 265.765 289.614 265.765 289.383C265.77 274.351 265.778 259.319 265.787 244.288Z" fill="#040404"/>
<path d="M65.5735 325.448C65.6241 340.68 65.6712 355.911 65.6986 371.142C65.6991 371.368 65.6995 371.594 65.6999 371.826C65.7087 376.728 65.7169 381.63 65.7244 386.532C65.7281 388.936 65.732 391.341 65.7359 393.745C65.7364 394.104 65.7364 394.104 65.737 394.47C65.7496 402.219 65.7718 409.969 65.799 417.719C65.8269 425.685 65.8451 433.651 65.8511 441.617C65.852 442.743 65.8529 443.869 65.8539 444.995C65.8541 445.216 65.8543 445.438 65.8546 445.666C65.858 449.229 65.8717 452.791 65.8893 456.354C65.9067 459.938 65.9133 463.522 65.909 467.107C65.9068 469.235 65.9127 471.362 65.9306 473.49C65.943 475.082 65.9399 476.674 65.9309 478.266C65.9296 478.907 65.9333 479.549 65.9427 480.191C65.9976 484.212 65.5223 486.844 62.9645 490.016C62.485 490.625 62.0821 491.273 61.6798 491.935C61.5511 492.14 61.4224 492.344 61.2899 492.555C61.0386 492.956 60.7873 493.357 60.5361 493.758C59.7497 495.009 58.9416 496.241 58.1052 497.459C57.7375 498.005 57.7375 498.005 57.5112 498.788C57.3338 498.788 57.1564 498.788 56.9737 498.788C56.8309 483.174 56.6983 467.561 56.6209 451.946C56.6198 451.715 56.6186 451.484 56.6174 451.245C56.5925 446.213 56.5694 441.182 56.5483 436.15C56.5379 433.682 56.5271 431.214 56.516 428.746C56.515 428.501 56.5139 428.255 56.5127 428.002C56.4773 420.057 56.4148 412.112 56.338 404.167C56.2593 395.996 56.2081 387.825 56.1913 379.653C56.1889 378.496 56.1862 377.339 56.1833 376.182C56.1824 375.841 56.1824 375.841 56.1816 375.492C56.1718 371.842 56.1332 368.193 56.0837 364.543C56.0343 360.864 56.0159 357.187 56.0281 353.508C56.0338 351.518 56.0265 349.53 55.9806 347.54C55.6846 334.234 55.6846 334.234 60.0071 329.714C64.4068 325.448 64.4068 325.448 65.5735 325.448Z" fill="#CE142A"/>
<path d="M218.22 177.102C221.664 178.674 225.129 181.773 226.819 185.164C228.244 189.42 227.801 194.354 227.704 198.775C227.664 200.685 227.669 202.595 227.675 204.505C227.685 208.029 227.66 211.552 227.615 215.075C227.57 218.559 227.541 222.041 227.533 225.525C227.533 225.742 227.532 225.96 227.532 226.184C227.529 227.288 227.527 228.393 227.525 229.497C227.509 237.299 227.458 245.1 227.387 252.901C227.318 260.475 227.265 268.049 227.233 275.623C227.232 275.857 227.231 276.091 227.23 276.332C227.22 278.681 227.21 281.03 227.201 283.379C227.182 288.164 227.161 292.948 227.138 297.733C227.137 297.953 227.136 298.173 227.135 298.399C227.066 313.059 226.946 327.719 226.819 342.379C226.187 341.594 225.582 340.822 225.047 339.967C224.922 339.767 224.796 339.567 224.667 339.361C224.535 339.148 224.403 338.936 224.266 338.718C223.981 338.262 223.695 337.807 223.41 337.352C223.19 337.001 223.19 337.001 222.967 336.644C222.238 335.48 221.505 334.319 220.773 333.158C220.641 332.948 220.508 332.738 220.372 332.522C220.247 332.322 220.121 332.123 219.992 331.918C219.828 331.659 219.828 331.659 219.661 331.394C219.287 330.788 219.287 330.788 218.742 330.142C218.058 328.923 218.071 328.01 218.087 326.637C218.086 326.378 218.085 326.119 218.084 325.853C218.081 324.983 218.086 324.113 218.09 323.242C218.09 322.613 218.089 321.985 218.088 321.356C218.085 319.807 218.088 318.258 218.093 316.709C218.099 314.853 218.098 312.998 218.097 311.143C218.096 307.718 218.1 304.294 218.106 300.87C218.112 297.48 218.116 294.089 218.118 290.699C218.118 290.488 218.118 290.277 218.118 290.06C218.118 288.99 218.119 287.919 218.119 286.849C218.121 279.266 218.128 271.684 218.139 264.101C218.148 256.735 218.156 249.368 218.161 242.001C218.161 241.774 218.161 241.547 218.161 241.313C218.162 239.033 218.164 236.753 218.165 234.473C218.168 229.828 218.171 225.183 218.174 220.538C218.174 220.325 218.174 220.111 218.175 219.891C218.184 205.628 218.202 191.365 218.22 177.102Z" fill="#020202"/>
<path d="M161.246 177.102C161.31 192.007 161.37 206.912 161.405 221.817C161.406 222.038 161.406 222.258 161.407 222.486C161.418 227.286 161.429 232.085 161.438 236.885C161.443 239.239 161.448 241.593 161.453 243.947C161.453 244.181 161.454 244.415 161.454 244.656C161.47 252.24 161.498 259.824 161.533 267.408C161.569 275.206 161.592 283.003 161.599 290.8C161.6 291.903 161.602 293.006 161.603 294.109C161.603 294.435 161.603 294.435 161.604 294.767C161.608 298.252 161.626 301.737 161.648 305.223C161.67 308.732 161.679 312.241 161.673 315.75C161.67 317.832 161.678 319.913 161.701 321.994C161.716 323.554 161.712 325.114 161.701 326.674C161.699 327.301 161.704 327.928 161.716 328.555C161.797 333.116 160.695 335.904 157.973 339.554C157.156 340.681 156.434 341.867 155.703 343.051C153.899 345.925 153.899 345.925 153.184 346.948C153.095 346.948 153.006 346.948 152.915 346.948C152.777 331.638 152.648 316.328 152.574 301.017C152.572 300.79 152.571 300.563 152.57 300.33C152.546 295.396 152.524 290.462 152.503 285.529C152.493 283.109 152.483 280.689 152.472 278.269C152.471 277.908 152.471 277.908 152.469 277.54C152.435 269.749 152.374 261.959 152.3 254.168C152.224 246.156 152.174 238.144 152.158 230.131C152.155 228.997 152.153 227.862 152.15 226.728C152.149 226.505 152.149 226.282 152.148 226.052C152.139 222.472 152.102 218.894 152.054 215.315C152.006 211.708 151.988 208.102 152 204.495C152.005 202.544 151.998 200.594 151.954 198.643C151.667 185.593 151.667 185.593 155.85 181.217C160.096 177.102 160.096 177.102 161.246 177.102Z" fill="#CD1127"/>
<path d="M314.161 325.448C314.279 325.553 314.396 325.657 314.517 325.765C315.506 326.63 316.502 327.377 317.611 328.087C320.079 329.884 322.223 331.901 322.863 334.998C323.477 339.031 323.325 343.167 323.251 347.234C323.216 349.182 323.221 351.129 323.226 353.077C323.234 356.67 323.213 360.263 323.174 363.856C323.136 367.409 323.111 370.962 323.104 374.515C323.104 374.736 323.103 374.958 323.103 375.186C323.101 376.312 323.099 377.438 323.097 378.563C323.083 386.519 323.04 394.474 322.979 402.43C322.919 410.154 322.874 417.879 322.846 425.604C322.846 425.842 322.845 426.081 322.844 426.326C322.835 428.721 322.827 431.116 322.819 433.511C322.803 438.389 322.785 443.266 322.765 448.144C322.764 448.368 322.763 448.593 322.763 448.824C322.703 463.777 322.601 478.729 322.492 493.682C321.834 493.035 321.268 492.447 320.798 491.652C320.687 491.467 320.576 491.282 320.462 491.092C320.286 490.794 320.286 490.794 320.107 490.49C318.909 488.495 317.681 486.523 316.429 484.561C316.265 484.305 316.102 484.049 315.934 483.785C315.349 482.869 314.764 481.955 314.161 481.051C314.094 480.541 314.094 480.541 314.094 479.953C314.093 479.728 314.092 479.503 314.091 479.272C314.092 479.024 314.094 478.777 314.095 478.522C314.094 478.258 314.094 477.994 314.093 477.723C314.092 476.831 314.094 475.939 314.096 475.047C314.096 474.404 314.096 473.762 314.095 473.119C314.094 471.718 314.095 470.316 314.097 468.915C314.1 466.831 314.1 464.747 314.1 462.664C314.099 459.159 314.101 455.654 314.104 452.149C314.107 448.677 314.11 445.206 314.11 441.734C314.11 441.519 314.11 441.303 314.11 441.081C314.11 439.985 314.111 438.89 314.111 437.795C314.112 430.033 314.115 422.271 314.121 414.509C314.126 406.968 314.129 399.426 314.132 391.885C314.132 391.652 314.132 391.42 314.132 391.18C314.133 388.847 314.133 386.513 314.134 384.18C314.135 379.426 314.137 374.672 314.138 369.918C314.138 369.7 314.139 369.481 314.139 369.256C314.144 354.653 314.152 340.051 314.161 325.448Z" fill="black"/>
<path d="M82.2354 312.817C82.286 326.713 82.333 340.608 82.3605 354.503C82.3609 354.709 82.3613 354.915 82.3618 355.127C82.3706 359.6 82.3788 364.074 82.3863 368.547C82.39 370.741 82.3938 372.935 82.3977 375.128C82.3981 375.347 82.3985 375.565 82.3989 375.79C82.4115 382.86 82.4337 389.93 82.4609 397C82.4888 404.268 82.507 411.536 82.513 418.805C82.5138 419.832 82.5148 420.86 82.5158 421.888C82.516 422.09 82.5162 422.292 82.5164 422.501C82.5199 425.75 82.5336 429 82.5512 432.249C82.5686 435.52 82.5752 438.791 82.5709 442.061C82.5688 443.832 82.5719 445.603 82.5878 447.373C82.6022 448.997 82.6028 450.62 82.5928 452.243C82.5915 452.828 82.5952 453.413 82.6045 453.998C82.6635 457.923 81.9798 460.452 79.6366 463.629C79.1237 464.334 78.6718 465.068 78.2147 465.81C77.9093 466.288 77.6035 466.766 77.2972 467.244C76.9871 467.729 76.677 468.214 76.3671 468.699C76.1516 469.036 76.1516 469.036 75.9317 469.379C75.5315 470.009 75.1406 470.645 74.7504 471.282C74.5599 471.579 74.3694 471.876 74.1731 472.182C74.0844 472.182 73.9957 472.182 73.9043 472.182C73.7661 457.872 73.6378 443.561 73.5629 429.25C73.5618 429.037 73.5607 428.825 73.5596 428.607C73.5354 423.994 73.5131 419.381 73.4926 414.769C73.4826 412.507 73.4721 410.244 73.4614 407.982C73.4604 407.757 73.4593 407.532 73.4582 407.3C73.424 400.017 73.3634 392.735 73.2892 385.453C73.2129 377.963 73.1635 370.473 73.1471 362.982C73.1448 361.922 73.1422 360.861 73.1394 359.8C73.1388 359.592 73.1383 359.383 73.1377 359.168C73.1282 355.823 73.091 352.478 73.043 349.133C72.9952 345.761 72.9775 342.39 72.9892 339.018C72.9948 337.193 72.9868 335.372 72.9432 333.548C72.6721 321.638 72.6721 321.638 76.2878 317.573C80.8447 312.817 80.8447 312.817 82.2354 312.817Z" fill="#CD1127"/>
<path d="M297.23 312.549C297.347 312.652 297.464 312.755 297.585 312.862C298.596 313.744 299.629 314.53 300.738 315.289C303.469 317.317 305.756 319.58 306.345 323.045C306.794 326.688 306.685 330.38 306.61 334.042C306.584 335.65 306.589 337.257 306.594 338.865C306.603 342.149 306.581 345.431 306.54 348.715C306.5 351.961 306.475 355.207 306.467 358.453C306.467 358.656 306.466 358.858 306.466 359.067C306.464 360.096 306.462 361.125 306.46 362.154C306.446 369.424 306.401 376.694 306.337 383.963C306.275 391.021 306.227 398.079 306.199 405.137C306.198 405.355 306.197 405.573 306.196 405.798C306.187 407.987 306.179 410.175 306.171 412.364C306.154 416.822 306.135 421.281 306.114 425.739C306.114 425.944 306.113 426.149 306.112 426.36C306.05 440.022 305.943 453.683 305.83 467.345C305.203 466.734 304.732 466.135 304.264 465.393C304.04 465.041 304.04 465.041 303.812 464.681C303.658 464.435 303.503 464.189 303.344 463.935C303.202 463.711 303.06 463.487 302.914 463.255C302.586 462.737 302.267 462.212 301.955 461.683C301.462 460.886 300.904 460.212 300.28 459.513C295.933 454.25 296.68 447.915 296.762 441.454C296.78 439.721 296.774 437.988 296.771 436.254C296.768 433.258 296.781 430.262 296.804 427.266C296.828 424.127 296.843 420.988 296.848 417.849C296.848 417.653 296.848 417.457 296.849 417.255C296.85 416.26 296.851 415.265 296.852 414.27C296.861 407.24 296.888 400.21 296.926 393.18C296.963 386.355 296.992 379.53 297.009 372.704C297.009 372.494 297.01 372.283 297.01 372.066C297.016 369.949 297.021 367.832 297.026 365.716C297.036 361.405 297.047 357.094 297.059 352.783C297.06 352.584 297.061 352.386 297.061 352.182C297.098 338.971 297.162 325.76 297.23 312.549Z" fill="#020202"/>
<path d="M240.257 379.735C240.55 380.126 240.55 380.126 240.873 380.684C240.996 380.893 241.119 381.102 241.245 381.318C241.379 381.549 241.513 381.78 241.651 382.019C241.943 382.515 242.235 383.011 242.528 383.506C242.683 383.769 242.838 384.031 242.998 384.301C243.806 385.652 244.643 386.985 245.48 388.318C245.825 388.867 246.169 389.416 246.513 389.965C246.681 390.232 246.849 390.5 247.022 390.776C248.199 392.655 249.363 394.541 250.527 396.428C250.971 397.146 251.417 397.863 251.862 398.58C252.259 399.218 252.654 399.857 253.05 400.495C253.335 400.955 253.621 401.415 253.908 401.875C254.082 402.157 254.256 402.438 254.436 402.729C254.591 402.979 254.746 403.228 254.906 403.486C255.286 404.155 255.578 404.813 255.844 405.534C255.633 405.565 255.423 405.596 255.206 405.627C250.456 406.337 245.905 407.251 241.332 408.759C241.126 408.826 240.92 408.892 240.708 408.961C230.909 412.175 221.591 416.981 212.404 421.622C209.401 423.128 206.344 424.521 203.291 425.923C202.889 426.108 202.49 426.298 202.095 426.496C202.242 425.24 202.801 424.328 203.472 423.288C203.589 423.104 203.706 422.92 203.827 422.73C208.517 415.418 213.588 408.278 219.026 401.503C219.161 401.334 219.297 401.164 219.436 400.99C221.02 399.012 222.627 397.055 224.283 395.137C224.472 394.917 224.472 394.917 224.665 394.693C227.121 391.872 229.7 389.172 232.349 386.533C232.804 386.079 233.257 385.624 233.71 385.169C235.219 383.659 236.738 382.181 238.375 380.81C238.63 380.593 238.885 380.377 239.148 380.154C239.719 379.735 239.719 379.735 240.257 379.735Z" fill="#010101"/>
<path d="M147.809 373.553C149.346 374.657 150.754 375.845 152.126 377.148C152.42 377.427 152.42 377.427 152.72 377.711C155.678 380.537 158.431 383.52 160.977 386.722C161.243 387.045 161.51 387.367 161.777 387.689C170.292 397.976 177.808 409.934 182.477 422.465C182.612 422.816 182.746 423.167 182.881 423.518C183.01 423.861 183.138 424.204 183.266 424.548C183.38 424.851 183.493 425.154 183.61 425.467C183.821 426.227 183.821 426.227 183.552 427.033C182.072 425.868 180.617 424.679 179.185 423.456C177.535 422.05 175.843 420.706 174.13 419.378C173.57 418.941 173.013 418.502 172.456 418.062C169.766 415.944 167.027 413.919 164.202 411.984C164.029 411.865 163.855 411.745 163.676 411.623C154.298 405.21 144.241 400.29 133.297 397.203C133.75 395.866 134.502 394.752 135.262 393.575C135.556 393.114 135.85 392.653 136.144 392.192C136.295 391.954 136.447 391.717 136.604 391.471C137.33 390.325 138.043 389.17 138.756 388.015C140.199 385.678 141.654 383.348 143.112 381.02C144.312 379.101 145.499 377.174 146.671 375.238C147.513 373.85 147.513 373.85 147.809 373.553Z" fill="#010101"/>
</svg>
